<!-- Generator: Adobe Illustrator 18.1.1, SVG Export Plug-In  -->
<svg version="1.1"
	 xmlns="http://www.w3.org/2000/svg" xmlns:xlink="http://www.w3.org/1999/xlink" xmlns:a="http://ns.adobe.com/AdobeSVGViewerExtensions/3.0/"
	 x="0px" y="0px" width="21.6px" height="21.1px" viewBox="0 0 21.6 21.1" enable-background="new 0 0 21.6 21.1"
	 xml:space="preserve">
<defs>
</defs>
<path d="M18.6,8.1l-0.5-1.3c0,0,1.3-2.9,1.2-3l-1.7-1.6c-0.1-0.1-3,1.2-3,1.2l-1.3-0.5c0,0-1.2-2.9-1.3-2.9H9.6
	C9.4,0,8.3,2.9,8.3,2.9L7,3.4c0,0-2.9-1.2-3-1.1L2.3,4C2.2,4.1,3.5,6.9,3.5,6.9L3,8.2c0,0-3,1.1-3,1.3v2.3C0,11.9,3,13,3,13l0.5,1.3
	c0,0-1.3,2.9-1.2,3L4,18.9c0.1,0.1,3-1.2,3-1.2l1.3,0.5c0,0,1.2,2.9,1.3,2.9H12c0.2,0,1.2-2.9,1.2-2.9l1.3-0.5c0,0,2.9,1.2,3,1.1
	l1.7-1.6c0.1-0.1-1.2-2.9-1.2-2.9l0.5-1.3c0,0,3-1.1,3-1.3V9.4C21.6,9.2,18.6,8.1,18.6,8.1z M14.3,10.6c0,1.9-1.6,3.4-3.5,3.4
	c-1.9,0-3.5-1.5-3.5-3.4s1.6-3.4,3.5-3.4C12.7,7.2,14.3,8.7,14.3,10.6z"/>
</svg>