<!-- Generator: Adobe Illustrator 18.1.1, SVG Export Plug-In  -->
<svg version="1.1"
	 xmlns="http://www.w3.org/2000/svg" xmlns:xlink="http://www.w3.org/1999/xlink" xmlns:a="http://ns.adobe.com/AdobeSVGViewerExtensions/3.0/"
	 x="0px" y="0px" width="149.3px" height="118.2px" viewBox="0 0 149.3 118.2" enable-background="new 0 0 149.3 118.2"
	 xml:space="preserve">
<defs>
</defs>
<path fill="#FFFFFF" d="M143.7,3.2c0-0.9-0.3-1.7-1-2.3c-0.6-0.6-1.5-0.9-2.3-0.9c-14.4,0.6-27.3,2.6-38.3,6.1
	c-10.6,3.3-19.9,8-27.4,14c-7.6-6-16.8-10.7-27.4-14C36.3,2.6,23.4,0.6,8.9,0C8.1,0,7.2,0.3,6.6,0.9s-1,1.4-1,2.3v4.3H0v95.7
	c0,0,49.6,2.3,74.7,15.1c25.1-12.8,74.7-15.1,74.7-15.1V7.4h-5.6V3.2z M137.4,6.5V90c-18.4,0.7-38,6.8-59.5,18.6v-83
	C91.6,14.4,111.6,8,137.4,6.5z M12,6.5C37.8,8,57.8,14.4,71.5,25.6v83C50,96.9,30.4,90.7,12,90V6.5z"/>
</svg>