<!-- Generator: Adobe Illustrator 18.1.1, SVG Export Plug-In  -->
<svg version="1.1"
	 xmlns="http://www.w3.org/2000/svg" xmlns:xlink="http://www.w3.org/1999/xlink" xmlns:a="http://ns.adobe.com/AdobeSVGViewerExtensions/3.0/"
	 x="0px" y="0px" width="317.9px" height="323.7px" viewBox="0 0 317.9 323.7" enable-background="new 0 0 317.9 323.7"
	 xml:space="preserve">
<defs>
</defs>
<ellipse fill="#09293D" cx="174.4" cy="304.2" rx="99.7" ry="19.5"/>
<g>
	<g>
		<g>
			<path fill="#F26546" d="M118.7,237.3c-3.9,16.3-0.4,33.3,0.3,50.1c0.2,4.8,0,9.9-2.7,13.9c-0.7,1.1-1.6,2.1-2.1,3.3
				s-0.4,2.8,0.6,3.6c0.8,0.7,2.1,0.6,3,0.2c0.9-0.4,1.7-1.2,2.5-2c-0.7,1.8,0.9,3.9,2.7,4.2c1.9,0.3,3.8-0.8,5-2.3s1.8-3.4,2.4-5.2
				c-1.5,1.9,0,5,2.4,5.5c2.3,0.5,4.8-1.2,5.7-3.4c0.9-2.2,0.6-4.8-0.3-7c-1.4-3.5-4.1-6.5-7.4-8.2c-1.3-17.3-1.9-34.7-1.7-52.1
				c0-2.8-0.3-6.3-2.9-7.3c-1.8-0.7-3.8,0.1-5.1,1.6C119.7,233.6,119.1,235.5,118.7,237.3z"/>
			<path fill="#5A246A" d="M123.7,311.6c-0.3,0-0.6,0-0.8-0.1c-1.3-0.2-2.5-1.1-3.2-2.3c-0.1-0.2-0.2-0.4-0.3-0.6
				c-0.3,0.3-0.7,0.5-1.1,0.7c-0.6,0.3-1.3,0.4-1.9,0.4l0,0c-0.8,0-1.6-0.2-2.2-0.7c-1.5-1.2-1.5-3.3-0.9-4.7c0.4-1,1-1.8,1.6-2.6
				c0.2-0.3,0.4-0.6,0.7-0.9c2.5-3.7,2.7-8.6,2.5-13.3s-0.6-9.5-1-14.2c-1-11.9-2.1-24.3,0.8-36.1c0.5-2,1.1-4,2.5-5.6
				c1.6-1.8,4.2-2.6,6.2-1.8c3.6,1.5,3.6,6.6,3.6,8.3c-0.1,17.1,0.4,34.4,1.7,51.4c3.3,1.9,6,4.9,7.4,8.5c1.1,2.8,1.2,5.5,0.3,7.7
				c-1.1,2.8-4.1,4.6-6.8,4c-1.2-0.3-2.2-1-2.9-2.1c-0.3,0.5-0.6,0.9-0.9,1.4C127.4,310.6,125.5,311.6,123.7,311.6z M120.2,305.3
				c0.2,0,0.4,0.1,0.5,0.2c0.4,0.3,0.6,0.8,0.4,1.2c-0.2,0.6,0,1.2,0.2,1.5c0.4,0.7,1.1,1.2,1.8,1.3c1.4,0.2,3-0.5,4-1.9
				c0.6-0.8,1.1-1.7,1.6-3.1c0-0.8,0.3-1.5,0.8-2.1c0.3-0.4,0.8-0.5,1.3-0.3c0.4,0.2,0.6,0.7,0.5,1.2c-0.2,0.5-0.3,1-0.5,1.5
				c0.1,1.2,1,2.4,2.2,2.7c1.7,0.4,3.8-0.9,4.5-2.8c0.7-1.7,0.6-3.9-0.3-6.2c-1.3-3.3-3.8-6.1-6.9-7.7c-0.3-0.2-0.5-0.5-0.5-0.8
				c-1.3-17.3-1.9-34.8-1.7-52.1c0-3.7-0.7-5.8-2.3-6.4c-1.2-0.5-2.9,0.1-4,1.3c-1,1.2-1.6,2.7-2,4.7c-2.8,11.5-1.7,23.7-0.7,35.5
				c0.4,4.7,0.8,9.5,1,14.3c0.2,5.1,0,10.4-2.9,14.5c-0.2,0.3-0.5,0.7-0.7,1c-0.5,0.7-1,1.4-1.3,2.1c-0.3,0.8-0.3,1.9,0.3,2.4
				c0.3,0.2,0.7,0.3,0.9,0.3l0,0c0.3,0,0.7-0.1,1.1-0.2c0.8-0.4,1.5-1.1,2.2-1.8C119.7,305.4,120,305.3,120.2,305.3z"/>
		</g>
		<g>
			<g>
				<path fill="#FFF5BB" d="M122.5,246.1c-1.2,0-2.1-1-2-2.2s1.1-2,2.2-1.9c1.2,0.1,2.1,1,2,2.2
					C124.6,245.2,123.7,246.1,122.5,246.1z"/>
			</g>
			<g>
				<path fill="#FFF5BB" d="M122.5,253.1c-1.2,0.1-2.2-0.8-2.2-2s0.9-2.1,2.1-2.1c1.2,0,2.1,0.9,2.1,2
					C124.6,252,123.7,253,122.5,253.1z"/>
			</g>
			<g>
				<path fill="#FFF5BB" d="M123.4,260c-1.2,0.2-2.2-0.6-2.4-1.7c-0.2-1.2,0.7-2.2,1.8-2.3c1.2-0.1,2.2,0.6,2.4,1.7
					C125.3,258.8,124.5,259.8,123.4,260z"/>
			</g>
			<g>
				<path fill="#FFF5BB" d="M124.3,266.9c-1.2,0.1-2.2-0.7-2.3-1.8c-0.1-1.1,0.7-2.1,1.8-2.3c1.2-0.2,2.2,0.6,2.4,1.8
					C126.3,265.8,125.4,266.9,124.3,266.9z"/>
			</g>
			<g>
				<path fill="#FFF5BB" d="M124.3,273.9c-1.2-0.1-2.1-1-2-2.1c0-1.1,0.9-2,2.1-2c1.2,0,2.1,0.9,2.1,2.1
					C126.5,273.1,125.5,274,124.3,273.9z"/>
			</g>
			<g>
				<path fill="#FFF5BB" d="M123.8,280.9c-1.2-0.1-2-1.1-2-2.2c0.1-1.1,1.1-2,2.3-1.9c1.2,0.1,2,1.1,2,2.2
					C126,280.2,125,281,123.8,280.9z"/>
			</g>
			<g>
				<path fill="#FFF5BB" d="M123.5,287.9c-1.2,0-2.1-1-2.1-2.1c0-1.2,1-2.1,2.2-2c1.2,0.1,2.1,1,2,2.1
					C125.6,287,124.7,287.9,123.5,287.9z"/>
			</g>
			<g>
				<path fill="#FFF5BB" d="M124.1,294.9c-1.1,0.2-2.3-0.6-2.4-1.8c-0.2-1.2,0.8-2.2,1.9-2.3c1.2-0.1,2.1,0.8,2.3,1.8
					C126,293.6,125.2,294.6,124.1,294.9z"/>
			</g>
		</g>
	</g>
	<g>
		<g>
			<path fill="#F26546" d="M221.5,237.3c3.9,16.3,0.4,33.3-0.3,50.1c-0.2,4.8,0,9.9,2.7,13.9c0.7,1.1,1.6,2.1,2.1,3.3
				s0.4,2.8-0.6,3.6c-0.8,0.7-2.1,0.6-3,0.2c-1-0.5-1.7-1.2-2.5-2c0.7,1.8-0.9,3.9-2.7,4.2c-1.9,0.3-3.8-0.8-5-2.3s-1.8-3.4-2.4-5.2
				c1.5,1.9,0,5-2.4,5.5s-4.8-1.2-5.7-3.4c-0.9-2.2-0.6-4.8,0.3-7c1.4-3.5,4.1-6.5,7.4-8.2c1.3-17.3,1.9-34.7,1.7-52.1
				c0-2.8,0.3-6.3,2.9-7.3c1.8-0.7,3.8,0.1,5.1,1.6C220.5,233.6,221.1,235.5,221.5,237.3z"/>
			<path fill="#5A246A" d="M216.6,311.6c-1.8,0-3.8-1-5.1-2.7c-0.3-0.4-0.6-0.9-0.9-1.4c-0.7,1-1.7,1.8-2.9,2.1
				c-2.7,0.6-5.7-1.2-6.8-4c-0.9-2.2-0.8-4.9,0.3-7.7c1.4-3.5,4.1-6.6,7.4-8.5c1.3-17,1.8-34.3,1.7-51.4c0-1.7-0.1-6.8,3.6-8.3
				c2-0.8,4.6,0,6.2,1.8c1.4,1.6,2,3.6,2.5,5.6c2.8,11.9,1.8,24.2,0.8,36.1c-0.4,4.7-0.8,9.5-1,14.2s0,9.6,2.5,13.3
				c0.2,0.3,0.4,0.6,0.7,0.9c0.6,0.8,1.2,1.6,1.6,2.6c0.6,1.5,0.5,3.6-0.9,4.7c-1.1,0.8-2.7,0.9-4.1,0.3c-0.4-0.2-0.8-0.4-1.1-0.7
				c-0.1,0.2-0.2,0.4-0.3,0.6c-0.7,1.2-1.9,2.1-3.2,2.3C217.1,311.6,216.9,311.6,216.6,311.6z M211.4,304.6c0.5,1.3,1,2.3,1.6,3.1
				c1.1,1.4,2.6,2.1,4,1.9c0.7-0.1,1.4-0.6,1.8-1.3c0.2-0.3,0.4-0.9,0.2-1.5c-0.2-0.4,0-1,0.4-1.2c0.4-0.3,0.9-0.2,1.3,0.2
				c0.7,0.7,1.3,1.4,2.2,1.8c0.3,0.2,0.7,0.2,1.1,0.2c0.3,0,0.6,0,0.9-0.3c0.6-0.5,0.6-1.6,0.3-2.4c-0.3-0.7-0.8-1.4-1.3-2.1
				c-0.2-0.3-0.5-0.6-0.7-1c-2.8-4.2-3-9.4-2.9-14.5c0.2-4.8,0.6-9.6,1-14.3c1-11.8,2.1-24-0.7-35.5c-0.5-2-1-3.5-2-4.7
				c-1.1-1.2-2.7-1.8-4-1.3c-1.6,0.6-2.4,2.7-2.3,6.4c0.1,17.3-0.4,34.9-1.7,52.1c0,0.3-0.2,0.7-0.5,0.8c-3.1,1.6-5.7,4.4-6.9,7.7
				c-0.9,2.3-1,4.5-0.3,6.2c0.8,1.9,2.8,3.2,4.5,2.8c1.1-0.2,2.1-1.5,2.2-2.7c-0.2-0.5-0.4-1-0.5-1.5c-0.2-0.5,0.1-1,0.5-1.2
				s1-0.1,1.3,0.3C211.1,303.1,211.4,303.8,211.4,304.6z"/>
		</g>
		<g>
			<g>
				<path fill="#FFF5BB" d="M217.7,246.1c1.2,0,2.1-1,2-2.2s-1.1-2-2.2-1.9c-1.2,0.1-2.1,1-2,2.2
					C215.6,245.2,216.6,246.1,217.7,246.1z"/>
			</g>
			<g>
				<path fill="#FFF5BB" d="M217.7,253.1c1.2,0.1,2.2-0.8,2.2-2s-0.9-2.1-2.1-2.1s-2.1,0.9-2.1,2C215.6,252,216.5,253,217.7,253.1z"
					/>
			</g>
			<g>
				<path fill="#FFF5BB" d="M216.9,260c1.2,0.2,2.2-0.6,2.4-1.7c0.2-1.2-0.7-2.2-1.8-2.3c-1.2-0.1-2.2,0.6-2.4,1.7
					C214.9,258.8,215.7,259.8,216.9,260z"/>
			</g>
			<g>
				<path fill="#FFF5BB" d="M216,266.9c1.2,0.1,2.2-0.7,2.3-1.8c0.1-1.1-0.7-2.1-1.8-2.3c-1.2-0.2-2.2,0.6-2.4,1.8
					C213.9,265.8,214.8,266.9,216,266.9z"/>
			</g>
			<g>
				<path fill="#FFF5BB" d="M215.9,273.9c1.2-0.1,2.1-1,2-2.1c0-1.1-0.9-2-2.1-2s-2.1,0.9-2.1,2.1
					C213.8,273.1,214.8,274,215.9,273.9z"/>
			</g>
			<g>
				<path fill="#FFF5BB" d="M216.4,280.9c1.2-0.1,2-1.1,2-2.2c-0.1-1.1-1.1-2-2.3-1.9c-1.2,0.1-2,1.1-2,2.2
					C214.2,280.2,215.2,281,216.4,280.9z"/>
			</g>
			<g>
				<path fill="#FFF5BB" d="M216.7,287.9c1.2,0,2.1-1,2.1-2.1c0-1.2-1-2.1-2.2-2c-1.2,0.1-2.1,1-2,2.1
					C214.6,287,215.5,287.9,216.7,287.9z"/>
			</g>
			<g>
				<path fill="#FFF5BB" d="M216.2,294.9c1.1,0.2,2.3-0.6,2.4-1.8c0.2-1.2-0.8-2.2-1.9-2.3c-1.2-0.1-2.1,0.8-2.3,1.8
					C214.3,293.6,215,294.6,216.2,294.9z"/>
			</g>
		</g>
	</g>
	<g>
		<g>
			<path fill="#E9215A" d="M299.3,83.9c-17.6,20.4-39.3,37.1-63.5,49c23-13.9,48.5-23.6,74.9-28.4c-21.2,21.9-46.5,39.6-74.3,52.1
				c25.8-12.1,52.3-22.7,79.4-31.7c-18.6,35.5-55,61.1-94.7,66.6c-3.5-12.5-7.1-25.1-7.8-38s1.9-26.4,9.5-36.9
				c8.3-11.4,21.8-18.1,35.3-22.2C271.7,90.4,285.8,88.4,299.3,83.9z"/>
			<path fill="#5A246A" d="M220.4,192.7l-0.2-0.8c-3.5-12.3-7.1-25.1-7.8-38.2c-0.5-10.4,0.7-25.3,9.7-37.6
				c7.2-10,19.3-17.6,35.9-22.5c6.2-1.9,12.6-3.3,18.8-4.7c7.4-1.7,15-3.4,22.3-5.8l3.5-1.2l-2.6,2.7
				c-10.8,12.5-23.1,23.6-36.6,33.1c15.2-6.4,31-11.2,47.1-14.1l3.1-0.6l-2.2,2.2C297,120,281,132.8,263.5,143.5
				c17.1-7.2,34.5-13.7,52-19.5l2.4-0.8l-1.2,2.2c-18.8,35.9-55.4,61.6-95.5,67.1L220.4,192.7z M296.1,86c-6.3,1.9-12.8,3.4-19,4.8
				c-6.2,1.4-12.5,2.8-18.7,4.7c-16.1,4.9-27.8,12.2-34.8,21.8c-8.6,11.8-9.8,26.3-9.3,36.3c0.6,12.6,4.1,25,7.5,36.9
				c38.3-5.6,73.3-29.8,91.9-63.7c-24.2,8.2-48.3,17.7-71.5,28.3c-1.8,0.8-3.6,1.7-5.4,2.5l-0.8-1.8c1.8-0.8,3.6-1.7,5.4-2.5
				c24.7-11.8,47.1-27.7,66.4-47.1c-19.3,3.8-38,10.1-55.6,18.9c-5.1,3.1-10.5,6.1-15.9,8.8l-1-1.8c5.2-3.1,10.6-6.1,16-8.8
				C268,113.1,283.1,100.5,296.1,86z"/>
		</g>
		<path fill="#F26546" d="M307.5,130.7c-11.8,20.2-32.3,35.1-55.1,40.4C267.9,154,285.4,137.3,307.5,130.7z"/>
		<path fill="#F26546" d="M291,114c-13.8,11.9-28.8,22.4-44.7,31.4c3.4-8.9,10.2-16.2,18.1-21.4C272.5,118.9,281.7,115.8,291,114z"
			/>
		<path fill="#F26546" d="M279.3,95.8c-7.1,13.7-22.4,22.7-37.8,22.5C250.6,106.3,264.4,98.1,279.3,95.8z"/>
		<g>
			<path fill="#E9215A" d="M18.7,83.9c17.6,20.4,39.3,37.1,63.5,49c-23-13.9-48.5-23.6-74.9-28.4c21.2,21.9,46.5,39.6,74.3,52.1
				c-25.8-12.1-52.3-22.7-79.4-31.7c18.6,35.5,55,61.1,94.7,66.6c3.5-12.5,7.1-25.1,7.8-38s-1.9-26.4-9.5-36.9
				c-8.3-11.4-21.8-18.1-35.3-22.2C46.3,90.4,32.1,88.4,18.7,83.9z"/>
			<path fill="#5A246A" d="M97.6,192.7l-0.9-0.1c-40.1-5.5-76.7-31.3-95.5-67.1L0,123.3l2.4,0.8c17.5,5.8,34.9,12.4,52,19.5
				C36.9,133,20.8,120.1,6.5,105.3l-2.2-2.2l3.1,0.6c16.2,2.9,32,7.7,47.1,14.1C41,108.1,28.7,97.1,17.9,84.6l-2.4-2.8L19,83
				c7.3,2.4,14.9,4.2,22.3,5.8c6.2,1.4,12.6,2.9,18.8,4.7c16.5,5,28.6,12.6,35.9,22.5c8.9,12.3,10.2,27.2,9.7,37.6
				c-0.7,13.1-4.3,25.9-7.8,38.2L97.6,192.7z M4.2,126.7c18.7,33.9,53.6,58.2,91.9,63.7c3.4-12,6.8-24.3,7.5-36.9
				c0.5-10-0.7-24.5-9.3-36.3c-7-9.6-18.7-16.9-34.8-21.8c-6.1-1.8-12.5-3.3-18.7-4.7c-6.3-1.4-12.7-2.9-19-4.8
				c13,14.6,28.1,27.1,44.9,37.4c5.4,2.7,10.8,5.6,15.9,8.8l-1,1.8c-5.4-2.7-10.8-5.6-16-8.8C48,116.4,29.3,110,10.1,106.2
				c19.3,19.4,41.6,35.2,66.4,47.1c1.8,0.8,3.6,1.7,5.4,2.5l-0.8,1.8c-1.8-0.8-3.6-1.7-5.4-2.5C52.5,144.4,28.4,134.9,4.2,126.7z"/>
		</g>
		<path fill="#F26546" d="M70.6,173c1-2.2,0.4-4.9-1-7c-1.4-2-3.4-3.5-5.5-4.9c-14.4-9.7-30.3-17.1-47-21.8
			c11.6,13,23.5,26.4,38.9,34.7c2.4,1.3,5,2.5,7.7,2.6C66.5,176.7,69.5,175.5,70.6,173z"/>
		<path fill="#F26546" d="M59.1,140.4c2.6,1.6,5.3,3.3,8.3,3.4c3,0.2,6.4-1.8,6.8-4.8c-14.9-13.1-32.7-22.9-51.8-28.5
			C32.4,122.8,45.7,132,59.1,140.4z"/>
		<path fill="#F26546" d="M63.5,116.7c2,1.2,4.1,2.5,6.4,2.8s5-0.5,6.1-2.6c1-2,0.4-4.5-1-6.2c-1.4-1.7-3.4-2.8-5.3-3.9
			c-11-5.7-22.7-9.8-34.8-12.3C42.8,103.7,53.2,110.4,63.5,116.7z"/>
		<path fill="#FBB21D" d="M85.3,53.2c-15.1,40.2-25.8,83.5-19.2,125.9s33.3,83.8,73.9,97.8c20.5,7.1,43.3,6.8,64.2,1
			c33.8-9.4,63.2-33.5,79.1-64.8c-7.3,2.1-15.4-1.7-20.2-7.6c-4.8-5.9-7.1-13.4-9-20.8c-12.4-49-11.5-100.9-0.5-150.2
			c-38.9-9.8-79.2-14.2-119.4-12.9c-13.4,0.4-28.1,2-37.6,11.5C91.1,38.5,88,45.9,85.3,53.2z"/>
		<path fill="#F17435" d="M162.9,76.6c22-23.8,56.1-28.5,87.2-24.4c1-5.9,2.2-11.9,3.5-17.7c-38.9-9.8-79.2-14.2-119.4-12.9
			c-13.4,0.4-28.1,2-37.6,11.5C91.1,38.6,88,46,85.3,53.3c-0.3,0.7-0.5,1.4-0.8,2.2C111.7,48.2,143,56.7,162.9,76.6z"/>
		<path fill="#F26546" d="M263.1,205.5c-4.8-5.9-7.1-13.4-9-20.8c-2.8-10.9-4.9-22-6.3-33.1c-0.9,0.7-1.8,1.4-2.4,2
			c-26.4,24.2-58.3,19.8-84.7-3.3c-23.1-19.8-38.5,23.1-61.6,29.7c-12.5,3.5-23.6,1.1-33.6-4.7c0.2,1.3,0.4,2.6,0.5,3.9
			c6.6,42.4,33.3,83.8,73.9,97.8c20.5,7.1,43.3,6.8,64.2,1c33.8-9.4,63.2-33.5,79.1-64.8C276,215.2,267.9,211.4,263.1,205.5z"/>
		<path fill="#DC88B9" d="M94.8,183.6c-2.7,15.4,6.1,29.5,15.4,39.9c18.8,21,42,36.4,67.1,44.8c6.1-12.3,14.6-22.7,22.1-33.8
			c7.5-11.2,14.2-23.8,15.7-37.7c1.5-13.9-3.5-29.3-14.2-34.6c-12.8-6.3-27.8,3.4-38.2,15.2c-10.4-10-22.5-18.9-36.2-19.5
			C112.9,157.3,97.6,167.6,94.8,183.6z"/>
		<g>
			<path fill="#5A246A" d="M172.9,283.2L172.9,283.2c-11.6,0-22.8-1.8-33.2-5.4c-38.1-13.1-67.4-51.8-74.6-98.6
				c-5.6-36.5,0.5-76.6,19.2-126.4c2.9-7.7,6-15,11.5-20.6c9.7-9.6,24.1-11.3,38.3-11.8c4.5-0.1,9.1-0.2,13.6-0.2
				c35.7,0,71.4,4.4,106,13.2l0.9,0.2l-0.2,0.9c-11.5,51.4-11.3,103.2,0.5,149.8c1.7,6.8,4,14.5,8.8,20.4c4,4.8,9.8,7.9,15.2,7.9
				c1.3,0,2.7-0.2,3.9-0.6l2.2-0.6l-1,2.1c-15.9,31.4-45.7,55.9-79.7,65.3C194,281.8,183.4,283.2,172.9,283.2z M147.8,22.3
				c-4.5,0-9.1,0.1-13.6,0.2c-13.8,0.4-27.8,2.1-37,11.2c-5.3,5.3-8.3,12.4-11.1,19.9C67.5,103.1,61.4,142.9,67,179
				c7.1,46,35.9,84.1,73.3,97c10.2,3.5,21.1,5.3,32.5,5.3l0,0c10.3,0,20.8-1.5,31.1-4.3c32.8-9.1,61.6-32.4,77.5-62.4
				c-6.6,1-14.2-2.4-19.1-8.4c-5.1-6.2-7.4-14.2-9.2-21.2c-11.8-46.6-12-98.3-0.7-149.7C218.3,26.6,183.1,22.3,147.8,22.3z"/>
		</g>
		<ellipse fill="#F59494" cx="201.7" cy="140.8" rx="15.6" ry="6.2"/>
		<ellipse fill="#F59494" cx="113.9" cy="140.8" rx="15.6" ry="6.2"/>
		<g>
			<g>
				<circle fill="#F7F0F2" cx="118.9" cy="102.4" r="35"/>
				<path fill="#BF4A9B" d="M118.9,138.9c-20.1,0-36.5-16.4-36.5-36.5s16.4-36.5,36.5-36.5s36.5,16.4,36.5,36.5
					S139,138.9,118.9,138.9z M118.9,68.9c-18.5,0-33.5,15-33.5,33.5s15,33.5,33.5,33.5s33.5-15,33.5-33.5S137.4,68.9,118.9,68.9z"/>
			</g>
			<g>
				<circle fill="#F7F0F2" cx="200.6" cy="102.4" r="35"/>
				<path fill="#BF4A9B" d="M200.6,138.9c-20.1,0-36.5-16.4-36.5-36.5s16.4-36.5,36.5-36.5s36.5,16.4,36.5,36.5
					S220.7,138.9,200.6,138.9z M200.6,68.9c-18.5,0-33.5,15-33.5,33.5s15,33.5,33.5,33.5s33.5-15,33.5-33.5S219.1,68.9,200.6,68.9z"
					/>
			</g>
			<g>
				<path fill="#FFF5BB" d="M158.9,123.6h-1.1c-7.2,0.1-10.1,3.7-10.1,3.7c1.8,8,7.2,15,9.5,17.7c0.3,0.3,0.7,0.5,1.1,0.5l0,0
					c0.4,0,0.8-0.2,1.1-0.5c2.4-2.7,7.8-9.7,9.5-17.7C169,127.4,166.1,123.8,158.9,123.6z"/>
				<path fill="#35141D" d="M158.4,146.1L158.4,146.1c-0.6,0-1.1-0.3-1.5-0.7c-2.3-2.7-7.8-9.8-9.7-17.9l-0.1-0.2l0.2-0.2
					c0.1-0.2,3.2-3.8,10.5-3.9h1.1c7.3,0.1,10.4,3.8,10.5,3.9l0.2,0.2l-0.1,0.2c-1.8,8.2-7.4,15.3-9.7,17.9
					C159.5,145.9,158.9,146.1,158.4,146.1z M148.2,127.5c1.8,7.8,7.2,14.7,9.4,17.2c0.2,0.2,0.5,0.3,0.7,0.3l0,0
					c0.3,0,0.6-0.1,0.7-0.3c2.2-2.6,7.6-9.4,9.4-17.2c-0.7-0.7-3.7-3.3-9.6-3.4h-1.1C151.9,124.2,148.9,126.8,148.2,127.5z"/>
			</g>
			<g>
				<g>
					<circle fill="#FFF5BB" cx="200.6" cy="102.4" r="28.8"/>
					<path fill="#35141D" d="M200.6,131.6c-16.1,0-29.3-13.1-29.3-29.3S184.4,73,200.6,73s29.3,13.1,29.3,29.3
						S216.7,131.6,200.6,131.6z M200.6,74.1c-15.6,0-28.3,12.7-28.3,28.3s12.7,28.2,28.3,28.2s28.3-12.7,28.3-28.3
						S216.2,74.1,200.6,74.1z"/>
				</g>
				<g>
					<g>
						<path fill="#35141D" d="M218.8,120.6l-0.6-0.6c0,0,1.9-2,1.8-2.1l-7.1-5.7c0,0-0.1,0.1-0.2,0.2c-0.1,0.1-0.3,0.3-0.4,0.4
							c-0.3,0.3-0.6,0.7-0.6,0.7l-0.6-0.6c0,0,0.1-0.1,0.3-0.4c0.2-0.3,0.6-0.6,0.9-1c0.7-0.9,1.5-2.2,2.1-3.5
							c0.6-1.4,0.9-2.8,1-3.9c0.1-0.6,0.1-1,0.1-1.3s0-0.5,0-0.5h0.8c0,0,0,0.4-0.1,0.9c0,0.4,0,0.9-0.1,0.9l9,1c0,0,0-0.2,0-0.4
							c0-0.3,0-0.6,0.1-1c0-0.7,0.1-1.4,0.1-1.4h0.8c0,0,0,0.3,0,0.9c0,0.6,0,1.3-0.2,2.3c-0.2,1.9-0.8,4.4-1.8,6.7s-2.3,4.5-3.5,6
							c-0.5,0.8-1.1,1.3-1.5,1.7C219.1,120.4,218.8,120.6,218.8,120.6z M216.4,104.7c0,0-0.1,0.9-0.4,1.8c-0.1,0.2-0.1,0.4-0.2,0.6
							c-0.1,0.2-0.1,0.4-0.2,0.5c-0.1,0.3-0.2,0.5-0.2,0.5l8.4,3.3c0,0,0.1-0.3,0.3-0.8c0.1-0.2,0.2-0.5,0.3-0.9
							c0.1-0.3,0.2-0.7,0.3-1c0.4-1.4,0.6-2.8,0.6-2.8L216.4,104.7z M220.7,117.2c0,0,0.2-0.3,0.5-0.7s0.7-1,1-1.6
							c0.4-0.6,0.7-1.2,0.9-1.7c0.2-0.5,0.4-0.8,0.4-0.8l-8.3-3.6c0,0-0.1,0.2-0.2,0.5c-0.2,0.3-0.3,0.7-0.6,1.1
							c-0.2,0.4-0.5,0.8-0.7,1.1s-0.3,0.4-0.3,0.4L220.7,117.2z"/>
					</g>
					<g>
						<path fill="#35141D" d="M200.6,128.2v-0.8c0,0,0.7,0,1.4-0.1c0.3,0,0.7,0,1-0.1c0.3,0,0.4,0,0.4,0l-1-9c0,0-0.4,0-0.9,0.1
							c-0.4,0-0.9,0.1-0.9,0.1v-0.8c0,0,0.2,0,0.5,0s0.8,0,1.3-0.1c1.1-0.1,2.6-0.5,3.9-1c1.4-0.6,2.7-1.4,3.5-2.1
							c0.5-0.3,0.8-0.7,1-0.9s0.4-0.3,0.4-0.3l0.6,0.6c0,0-0.3,0.3-0.7,0.6c-0.2,0.2-0.3,0.3-0.4,0.4c-0.1,0.1-0.2,0.2-0.2,0.2
							l5.7,7.1c0,0.1,2.1-1.8,2.1-1.8l0.6,0.6c0,0-0.2,0.2-0.6,0.6s-1,0.9-1.7,1.5c-1.5,1.2-3.7,2.5-6,3.5c-2.4,1-4.8,1.5-6.7,1.8
							c-0.9,0.1-1.7,0.1-2.3,0.2C200.9,128.2,200.6,128.2,200.6,128.2z M210.1,115.2c0,0-0.2,0.1-0.4,0.3c-0.3,0.2-0.7,0.4-1.1,0.7
							c-0.4,0.3-0.8,0.4-1.1,0.6c-0.3,0.1-0.5,0.2-0.5,0.2l3.6,8.3c0,0,0.3-0.2,0.8-0.4c0.5-0.2,1.1-0.5,1.7-0.9
							c0.6-0.4,1.2-0.7,1.6-1s0.7-0.5,0.7-0.5L210.1,115.2z M204.3,127.1c0,0,1.4-0.2,2.8-0.6c0.3-0.1,0.7-0.2,1-0.3
							c0.3-0.1,0.6-0.2,0.9-0.3c0.5-0.2,0.8-0.3,0.8-0.3l-3.3-8.4c0,0-0.2,0.1-0.5,0.2c-0.2,0.1-0.3,0.1-0.5,0.2
							c-0.2,0.1-0.4,0.1-0.6,0.2c-0.9,0.3-1.8,0.4-1.8,0.4L204.3,127.1z"/>
					</g>
					<g>
						<path fill="#35141D" d="M182.3,120.6l0.6-0.6c0,0,2,1.9,2.1,1.8l5.7-7.1c0,0-0.1-0.1-0.2-0.2c-0.1-0.1-0.3-0.3-0.4-0.4
							c-0.3-0.3-0.7-0.6-0.7-0.6l0.6-0.6c0,0,0.1,0.1,0.4,0.3c0.3,0.2,0.6,0.6,1,0.9c0.9,0.7,2.2,1.5,3.5,2.1c1.4,0.6,2.8,0.9,3.9,1
							c0.6,0.1,1,0.1,1.3,0.1s0.5,0,0.5,0v0.8c0,0-0.4,0-0.9-0.1c-0.4,0-0.9,0-0.9-0.1l-1,9c0,0,0.2,0,0.4,0c0.3,0,0.6,0,1,0.1
							c0.7,0,1.4,0.1,1.4,0.1v0.8c0,0-0.3,0-0.9,0c-0.6,0-1.3,0-2.3-0.2c-1.9-0.2-4.4-0.8-6.7-1.8s-4.5-2.3-6-3.5
							c-0.8-0.5-1.3-1.1-1.7-1.5C182.6,120.8,182.3,120.6,182.3,120.6z M198.2,118.2c0,0-0.9-0.1-1.8-0.4c-0.2-0.1-0.4-0.1-0.6-0.2
							c-0.2-0.1-0.4-0.1-0.5-0.2c-0.3-0.1-0.5-0.2-0.5-0.2l-3.3,8.4c0,0,0.3,0.1,0.8,0.3c0.2,0.1,0.5,0.2,0.9,0.3
							c0.3,0.1,0.7,0.2,1,0.3c1.4,0.4,2.8,0.6,2.8,0.6L198.2,118.2z M185.7,122.5c0,0,0.3,0.2,0.7,0.5s1,0.7,1.6,1
							c0.6,0.4,1.2,0.7,1.7,0.9c0.5,0.2,0.8,0.4,0.8,0.4l3.6-8.3c0,0-0.2-0.1-0.5-0.2c-0.3-0.2-0.7-0.3-1.1-0.6
							c-0.4-0.2-0.8-0.5-1.1-0.7s-0.4-0.3-0.4-0.3L185.7,122.5z"/>
					</g>
					<g>
						<path fill="#35141D" d="M174.8,102.4h0.8c0,0,0,0.7,0.1,1.4c0,0.3,0,0.7,0.1,1c0,0.3,0,0.4,0,0.4l9-1c0,0,0-0.4-0.1-0.9
							c0-0.4-0.1-0.9-0.1-0.9h0.8c0,0,0,0.2,0,0.5s0,0.8,0.1,1.3c0.1,1.1,0.5,2.6,1,3.9c0.6,1.4,1.4,2.7,2.1,3.5
							c0.3,0.5,0.7,0.8,0.9,1s0.3,0.4,0.3,0.4l-0.6,0.6c0,0-0.3-0.3-0.6-0.7c-0.2-0.2-0.3-0.3-0.4-0.4c-0.1-0.1-0.2-0.2-0.2-0.2
							l-7.1,5.7c-0.1,0,1.8,2.1,1.8,2.1l-0.6,0.6c0,0-0.2-0.2-0.6-0.6c-0.4-0.4-0.9-1-1.5-1.7c-1.2-1.5-2.5-3.7-3.5-6
							c-1-2.4-1.5-4.8-1.8-6.7c-0.1-0.9-0.1-1.7-0.2-2.3C174.8,102.7,174.8,102.4,174.8,102.4z M187.8,111.9c0,0-0.1-0.2-0.3-0.4
							c-0.2-0.3-0.4-0.7-0.7-1.1c-0.3-0.4-0.4-0.8-0.6-1.1c-0.1-0.3-0.2-0.5-0.2-0.5l-8.3,3.6c0,0,0.2,0.3,0.4,0.8s0.5,1.1,0.9,1.7
							c0.4,0.6,0.7,1.2,1,1.6c0.3,0.4,0.5,0.7,0.5,0.7L187.8,111.9z M175.9,106.1c0,0,0.2,1.4,0.6,2.8c0.1,0.3,0.2,0.7,0.3,1
							s0.2,0.6,0.3,0.9c0.2,0.5,0.3,0.8,0.3,0.8l8.4-3.3c0,0-0.1-0.2-0.2-0.5c-0.1-0.2-0.1-0.3-0.2-0.5c-0.1-0.2-0.1-0.4-0.2-0.6
							c-0.3-0.9-0.4-1.8-0.4-1.8L175.9,106.1z"/>
					</g>
					<g>
						<path fill="#35141D" d="M182.3,84.1l0.6,0.6c0,0-1.9,2-1.8,2.1l7.1,5.7c0,0,0.1-0.1,0.2-0.2c0.1-0.1,0.3-0.3,0.4-0.4
							c0.3-0.3,0.6-0.7,0.6-0.7l0.6,0.6c0,0-0.1,0.1-0.3,0.4c-0.2,0.3-0.6,0.6-0.9,1c-0.7,0.9-1.5,2.2-2.1,3.5
							c-0.6,1.4-0.9,2.8-1,3.9c-0.1,0.6-0.1,1-0.1,1.3s0,0.5,0,0.5h-0.8c0,0,0-0.4,0.1-0.9c0-0.4,0-0.9,0.1-0.9l-9-1
							c0,0,0,0.2,0,0.4c0,0.3,0,0.6-0.1,1c0,0.7-0.1,1.4-0.1,1.4H175c0,0,0-0.3,0-0.9c0-0.6,0-1.3,0.2-2.3c0.2-1.9,0.8-4.4,1.8-6.7
							s2.3-4.5,3.5-6c0.5-0.8,1.1-1.3,1.5-1.7C182.1,84.4,182.3,84.1,182.3,84.1z M184.8,100c0,0,0.1-0.9,0.4-1.8
							c0.1-0.2,0.1-0.4,0.2-0.6c0.1-0.2,0.1-0.4,0.2-0.5c0.1-0.3,0.2-0.5,0.2-0.5l-8.4-3.3c0,0-0.1,0.3-0.3,0.8
							c-0.1,0.2-0.2,0.5-0.3,0.9c-0.1,0.3-0.2,0.7-0.3,1c-0.4,1.4-0.6,2.8-0.6,2.8L184.8,100z M180.5,87.5c0,0-0.2,0.3-0.5,0.7
							s-0.7,1-1,1.6c-0.4,0.6-0.7,1.2-0.9,1.7s-0.4,0.8-0.4,0.8l8.3,3.6c0,0,0.1-0.2,0.2-0.5c0.2-0.3,0.3-0.7,0.6-1.1
							c0.2-0.4,0.5-0.8,0.7-1.1s0.3-0.4,0.3-0.4L180.5,87.5z"/>
					</g>
					<g>
						<path fill="#35141D" d="M200.6,76.6v0.8c0,0-0.7,0-1.4,0.1c-0.3,0-0.7,0-1,0.1c-0.3,0-0.4,0-0.4,0l1,9c0,0,0.4,0,0.9-0.1
							c0.4,0,0.9-0.1,0.9-0.1v0.8c0,0-0.2,0-0.5,0s-0.8,0-1.3,0.1c-1.1,0.1-2.6,0.5-3.9,1c-1.4,0.6-2.7,1.4-3.5,2.1
							c-0.5,0.3-0.8,0.7-1,0.9s-0.4,0.3-0.4,0.3l-0.6-0.6c0,0,0.3-0.3,0.7-0.6c0.2-0.2,0.3-0.3,0.4-0.4c0.1-0.1,0.2-0.2,0.2-0.2
							l-5.7-7.1c0-0.1-2.1,1.8-2.1,1.8l-0.6-0.6c0,0,0.2-0.2,0.6-0.6c0.4-0.4,1-0.9,1.7-1.5c1.5-1.2,3.7-2.5,6-3.5
							c2.4-1,4.8-1.5,6.7-1.8c0.9-0.1,1.7-0.1,2.3-0.2C200.3,76.6,200.6,76.6,200.6,76.6z M191.1,89.6c0,0,0.2-0.1,0.4-0.3
							c0.3-0.2,0.7-0.4,1.1-0.7c0.4-0.3,0.8-0.4,1.1-0.6c0.3-0.1,0.5-0.2,0.5-0.2l-3.6-8.3c0,0-0.3,0.2-0.8,0.4s-1.1,0.5-1.7,0.9
							c-0.6,0.4-1.2,0.7-1.6,1c-0.4,0.3-0.7,0.5-0.7,0.5L191.1,89.6z M196.9,77.7c0,0-1.4,0.2-2.8,0.6c-0.3,0.1-0.7,0.2-1,0.3
							s-0.6,0.2-0.9,0.3c-0.5,0.2-0.8,0.3-0.8,0.3l3.3,8.4c0,0,0.2-0.1,0.5-0.2c0.2-0.1,0.3-0.1,0.5-0.2c0.2-0.1,0.4-0.1,0.6-0.2
							c0.9-0.3,1.8-0.4,1.8-0.4L196.9,77.7z"/>
					</g>
					<g>
						<path fill="#35141D" d="M218.8,84.1l-0.6,0.6c0,0-2-1.9-2.1-1.8l-5.7,7.1c0,0,0.1,0.1,0.2,0.2c0.1,0.1,0.3,0.3,0.4,0.4
							c0.3,0.3,0.7,0.6,0.7,0.6l-0.6,0.6c0,0-0.1-0.1-0.4-0.3c-0.3-0.2-0.6-0.6-1-0.9c-0.9-0.7-2.2-1.5-3.5-2.1
							c-1.4-0.6-2.8-0.9-3.9-1c-0.6-0.1-1-0.1-1.3-0.1s-0.5,0-0.5,0v-0.8c0,0,0.4,0,0.9,0.1c0.4,0,0.9,0,0.9,0.1l1-9
							c0,0-0.2,0-0.4,0c-0.3,0-0.6,0-1-0.1c-0.7,0-1.4-0.1-1.4-0.1v-1c0,0,0.3,0,0.9,0c0.6,0,1.3,0,2.3,0.2c1.9,0.2,4.4,0.8,6.7,1.8
							s4.5,2.3,6,3.5c0.8,0.5,1.3,1.1,1.7,1.5C218.6,83.9,218.8,84.1,218.8,84.1z M203,86.6c0,0,0.9,0.1,1.8,0.4
							c0.2,0.1,0.4,0.1,0.6,0.2c0.2,0.1,0.4,0.1,0.5,0.2c0.3,0.1,0.5,0.2,0.5,0.2l3.3-8.4c0,0-0.3-0.1-0.8-0.3
							c-0.2-0.1-0.5-0.2-0.9-0.3c-0.3-0.1-0.7-0.2-1-0.3c-1.4-0.4-2.8-0.6-2.8-0.6L203,86.6z M215.5,82.3c0,0-0.3-0.2-0.7-0.5
							c-0.4-0.3-1-0.7-1.6-1c-0.6-0.4-1.2-0.7-1.7-0.9s-0.8-0.4-0.8-0.4l-3.6,8.3c0,0,0.2,0.1,0.5,0.2c0.3,0.2,0.7,0.3,1.1,0.6
							c0.4,0.2,0.8,0.5,1.1,0.7s0.4,0.3,0.4,0.3L215.5,82.3z"/>
					</g>
					<g>
						<path fill="#35141D" d="M226.4,102.4h-0.8c0,0,0-0.7-0.1-1.4c0-0.3,0-0.7-0.1-1c0-0.3,0-0.4,0-0.4l-9,1c0,0,0,0.4,0.1,0.9
							c0,0.4,0.1,0.9,0.1,0.9h-0.8c0,0,0-0.2,0-0.5s0-0.8-0.1-1.3c-0.1-1.1-0.5-2.6-1-3.9c-0.6-1.4-1.4-2.7-2.1-3.5
							c-0.3-0.5-0.7-0.8-0.9-1s-0.3-0.4-0.3-0.4l0.6-0.6c0,0,0.3,0.3,0.6,0.7c0.2,0.2,0.3,0.3,0.4,0.4c0.1,0.1,0.2,0.2,0.2,0.2
							l7.1-5.7c0.1,0-1.8-2.1-1.8-2.1l0.6-0.6c0,0,0.2,0.2,0.6,0.6c0.4,0.4,0.9,1,1.5,1.7c1.2,1.5,2.5,3.7,3.5,6
							c1,2.4,1.5,4.8,1.8,6.7c0.1,0.9,0.1,1.7,0.2,2.3C226.4,102.1,226.4,102.4,226.4,102.4z M213.4,92.9c0,0,0.1,0.2,0.3,0.4
							c0.2,0.3,0.4,0.7,0.7,1.1c0.3,0.4,0.4,0.8,0.6,1.1c0.1,0.3,0.2,0.5,0.2,0.5l8.3-3.6c0,0-0.2-0.3-0.4-0.8
							c-0.2-0.5-0.5-1.1-0.9-1.7c-0.4-0.6-0.7-1.2-1-1.6c-0.3-0.4-0.5-0.7-0.5-0.7L213.4,92.9z M225.3,98.7c0,0-0.2-1.4-0.6-2.8
							c-0.1-0.3-0.2-0.7-0.3-1c-0.1-0.3-0.2-0.6-0.3-0.9c-0.2-0.5-0.3-0.8-0.3-0.8l-8.4,3.3c0,0,0.1,0.2,0.2,0.5
							c0.1,0.2,0.1,0.3,0.2,0.5s0.1,0.4,0.2,0.6c0.3,0.9,0.4,1.8,0.4,1.8L225.3,98.7z"/>
					</g>
				</g>
				<g>
					<circle fill="#5A246A" cx="200.6" cy="102.4" r="13.3"/>
					<circle fill="#F7F0F2" cx="195.9" cy="97.8" r="3.6"/>
				</g>
			</g>
			<g>
				<g>
					<circle fill="#FFF5BB" cx="118.9" cy="102.4" r="28.8"/>
					<path fill="#35141D" d="M118.9,131.6c-16.1,0-29.3-13.1-29.3-29.3S102.7,73,118.9,73s29.3,13.1,29.3,29.3
						S135.1,131.6,118.9,131.6z M118.9,74.1c-15.6,0-28.3,12.7-28.3,28.3s12.7,28.3,28.3,28.3s28.3-12.7,28.3-28.3
						S134.5,74.1,118.9,74.1z"/>
				</g>
				<g>
					<g>
						<path fill="#35141D" d="M137.2,120.6l-0.6-0.6c0,0,1.9-2,1.8-2.1l-7.1-5.7c0,0-0.1,0.1-0.2,0.2c-0.1,0.1-0.3,0.3-0.4,0.4
							c-0.3,0.3-0.6,0.7-0.6,0.7l-0.6-0.6c0,0,0.1-0.1,0.3-0.4c0.2-0.3,0.6-0.6,0.9-1c0.7-0.9,1.5-2.2,2.1-3.5
							c0.6-1.4,0.9-2.8,1-3.9c0.1-0.6,0.1-1,0.1-1.3s0-0.5,0-0.5h0.8c0,0,0,0.4-0.1,0.9c0,0.4,0,0.9-0.1,0.9l9,1c0,0,0-0.2,0-0.4
							c0-0.3,0-0.6,0.1-1c0-0.7,0.1-1.4,0.1-1.4h0.8c0,0,0,0.3,0,0.9c0,0.6,0,1.3-0.2,2.3c-0.2,1.9-0.8,4.4-1.8,6.7s-2.3,4.5-3.5,6
							c-0.5,0.8-1.1,1.3-1.5,1.7C137.4,120.4,137.2,120.6,137.2,120.6z M134.7,104.7c0,0-0.1,0.9-0.4,1.8c-0.1,0.2-0.1,0.4-0.2,0.6
							c-0.1,0.2-0.1,0.4-0.2,0.5c-0.1,0.3-0.2,0.5-0.2,0.5l8.4,3.3c0,0,0.1-0.3,0.3-0.8c0.1-0.2,0.2-0.5,0.3-0.9
							c0.1-0.3,0.2-0.7,0.3-1c0.4-1.4,0.6-2.8,0.6-2.8L134.7,104.7z M139,117.2c0,0,0.2-0.3,0.5-0.7s0.7-1,1-1.6
							c0.4-0.6,0.7-1.2,0.9-1.7s0.4-0.8,0.4-0.8l-8.3-3.6c0,0-0.1,0.2-0.2,0.5c-0.2,0.3-0.3,0.7-0.6,1.1c-0.2,0.4-0.5,0.8-0.7,1.1
							s-0.3,0.4-0.3,0.4L139,117.2z"/>
					</g>
					<g>
						<path fill="#35141D" d="M118.9,128.2v-0.8c0,0,0.7,0,1.4-0.1c0.3,0,0.7,0,1-0.1c0.3,0,0.4,0,0.4,0l-1-9c0,0-0.4,0-0.9,0.1
							c-0.4,0-0.9,0.1-0.9,0.1v-0.8c0,0,0.2,0,0.5,0s0.8,0,1.3-0.1c1.1-0.1,2.6-0.5,3.9-1c1.4-0.6,2.7-1.4,3.5-2.1
							c0.5-0.3,0.8-0.7,1-0.9s0.4-0.3,0.4-0.3l0.6,0.6c0,0-0.3,0.3-0.7,0.6c-0.2,0.2-0.3,0.3-0.4,0.4c-0.1,0.1-0.2,0.2-0.2,0.2
							l5.7,7.1c0,0.1,2.1-1.8,2.1-1.8l0.6,0.6c0,0-0.2,0.2-0.6,0.6c-0.4,0.4-1,0.9-1.7,1.5c-1.5,1.2-3.7,2.5-6,3.5
							c-2.4,1-4.8,1.5-6.7,1.8c-0.9,0.1-1.7,0.1-2.3,0.2C119.2,128.2,118.9,128.2,118.9,128.2z M128.4,115.2c0,0-0.2,0.1-0.4,0.3
							c-0.3,0.2-0.7,0.4-1.1,0.7c-0.4,0.3-0.8,0.4-1.1,0.6c-0.3,0.1-0.5,0.2-0.5,0.2l3.6,8.3c0,0,0.3-0.2,0.8-0.4
							c0.5-0.2,1.1-0.5,1.7-0.9c0.6-0.4,1.2-0.7,1.6-1c0.4-0.3,0.7-0.5,0.7-0.5L128.4,115.2z M122.6,127.1c0,0,1.4-0.2,2.8-0.6
							c0.3-0.1,0.7-0.2,1-0.3c0.3-0.1,0.6-0.2,0.9-0.3c0.5-0.2,0.8-0.3,0.8-0.3l-3.3-8.4c0,0-0.2,0.1-0.5,0.2
							c-0.2,0.1-0.3,0.1-0.5,0.2c-0.2,0.1-0.4,0.1-0.6,0.2c-0.9,0.3-1.8,0.4-1.8,0.4L122.6,127.1z"/>
					</g>
					<g>
						<path fill="#35141D" d="M100.7,120.6l0.6-0.6c0,0,2,1.9,2.1,1.8l5.7-7.1c0,0-0.1-0.1-0.2-0.2c-0.1-0.1-0.3-0.3-0.4-0.4
							c-0.3-0.3-0.7-0.6-0.7-0.6l0.6-0.6c0,0,0.1,0.1,0.4,0.3c0.3,0.2,0.6,0.6,1,0.9c0.9,0.7,2.2,1.5,3.5,2.1c1.4,0.6,2.8,0.9,3.9,1
							c0.6,0.1,1,0.1,1.3,0.1s0.5,0,0.5,0v0.8c0,0-0.4,0-0.9-0.1c-0.4,0-0.9,0-0.9-0.1l-1,9c0,0,0.2,0,0.4,0c0.3,0,0.6,0,1,0.1
							c0.7,0,1.4,0.1,1.4,0.1v0.8c0,0-0.3,0-0.9,0c-0.6,0-1.3,0-2.3-0.2c-1.9-0.2-4.4-0.8-6.7-1.8s-4.5-2.3-6-3.5
							c-0.8-0.5-1.3-1.1-1.7-1.5C100.9,120.8,100.7,120.6,100.7,120.6z M116.5,118.2c0,0-0.9-0.1-1.8-0.4c-0.2-0.1-0.4-0.1-0.6-0.2
							c-0.2-0.1-0.4-0.1-0.5-0.2c-0.3-0.1-0.5-0.2-0.5-0.2l-3.3,8.4c0,0,0.3,0.1,0.8,0.3c0.2,0.1,0.5,0.2,0.9,0.3
							c0.3,0.1,0.7,0.2,1,0.3c1.4,0.4,2.8,0.6,2.8,0.6L116.5,118.2z M104,122.5c0,0,0.3,0.2,0.7,0.5s1,0.7,1.6,1
							c0.6,0.4,1.2,0.7,1.7,0.9c0.5,0.2,0.8,0.4,0.8,0.4l3.6-8.3c0,0-0.2-0.1-0.5-0.2c-0.3-0.2-0.7-0.3-1.1-0.6
							c-0.4-0.2-0.8-0.5-1.1-0.7s-0.4-0.3-0.4-0.3L104,122.5z"/>
					</g>
					<g>
						<path fill="#35141D" d="M93.1,102.4h0.8c0,0,0,0.7,0.1,1.4c0,0.3,0,0.7,0.1,1c0,0.3,0,0.4,0,0.4l9-1c0,0,0-0.4-0.1-0.9
							c0-0.4-0.1-0.9-0.1-0.9h0.8c0,0,0,0.2,0,0.5s0,0.8,0.1,1.3c0.1,1.1,0.5,2.6,1,3.9c0.6,1.4,1.4,2.7,2.1,3.5
							c0.3,0.5,0.7,0.8,0.9,1s0.3,0.4,0.3,0.4l-0.6,0.6c0,0-0.3-0.3-0.6-0.7c-0.2-0.2-0.3-0.3-0.4-0.4c-0.1-0.1-0.2-0.2-0.2-0.2
							l-7.1,5.7c-0.1,0,1.8,2.1,1.8,2.1l-0.6,0.6c0,0-0.2-0.2-0.6-0.6c-0.4-0.4-0.9-1-1.5-1.7c-1.2-1.5-2.5-3.7-3.5-6
							c-1-2.4-1.5-4.8-1.8-6.7c-0.1-0.9-0.1-1.7-0.2-2.3C93.1,102.7,93.1,102.4,93.1,102.4z M106.1,111.9c0,0-0.1-0.2-0.3-0.4
							c-0.2-0.3-0.4-0.7-0.7-1.1c-0.3-0.4-0.4-0.8-0.6-1.1c-0.1-0.3-0.2-0.5-0.2-0.5l-8.3,3.6c0,0,0.2,0.3,0.4,0.8s0.5,1.1,0.9,1.7
							c0.4,0.6,0.7,1.2,1,1.6c0.3,0.4,0.5,0.7,0.5,0.7L106.1,111.9z M94.2,106.1c0,0,0.2,1.4,0.6,2.8c0.1,0.3,0.2,0.7,0.3,1
							s0.2,0.6,0.3,0.9c0.2,0.5,0.3,0.8,0.3,0.8l8.4-3.3c0,0-0.1-0.2-0.2-0.5c-0.1-0.2-0.1-0.3-0.2-0.5c-0.1-0.2-0.1-0.4-0.2-0.6
							c-0.3-0.9-0.4-1.8-0.4-1.8L94.2,106.1z"/>
					</g>
					<g>
						<path fill="#35141D" d="M100.7,84.1l0.6,0.6c0,0-1.9,2-1.8,2.1l7.1,5.7c0,0,0.1-0.1,0.2-0.2c0.1-0.1,0.3-0.3,0.4-0.4
							c0.3-0.3,0.6-0.7,0.6-0.7l0.6,0.6c0,0-0.1,0.1-0.3,0.4c-0.2,0.3-0.6,0.6-0.9,1c-0.7,0.9-1.5,2.2-2.1,3.5
							c-0.6,1.4-0.9,2.8-1,3.9c-0.1,0.6-0.1,1-0.1,1.3s0,0.5,0,0.5h-0.8c0,0,0-0.4,0.1-0.9c0-0.4,0-0.9,0.1-0.9l-9-1
							c0,0,0,0.2,0,0.4c0,0.3,0,0.6-0.1,1c0,0.7-0.1,1.4-0.1,1.4h-0.8c0,0,0-0.3,0-0.9c0-0.6,0-1.3,0.2-2.3c0.2-1.9,0.8-4.4,1.8-6.7
							s2.3-4.5,3.5-6c0.5-0.8,1.1-1.3,1.5-1.7C100.4,84.4,100.7,84.1,100.7,84.1z M103.1,100c0,0,0.1-0.9,0.4-1.8
							c0.1-0.2,0.1-0.4,0.2-0.6c0.1-0.2,0.1-0.4,0.2-0.5c0.1-0.3,0.2-0.5,0.2-0.5l-8.4-3.3c0,0-0.1,0.3-0.3,0.8
							c-0.1,0.2-0.2,0.5-0.3,0.9c-0.1,0.3-0.2,0.7-0.3,1c-0.4,1.4-0.6,2.8-0.6,2.8L103.1,100z M98.8,87.5c0,0-0.2,0.3-0.5,0.7
							s-0.7,1-1,1.6c-0.4,0.6-0.7,1.2-0.9,1.7S96,92.3,96,92.3l8.3,3.6c0,0,0.1-0.2,0.2-0.5c0.2-0.3,0.3-0.7,0.6-1.1
							c0.2-0.4,0.5-0.8,0.7-1.1s0.3-0.4,0.3-0.4L98.8,87.5z"/>
					</g>
					<g>
						<path fill="#35141D" d="M118.9,76.6v0.8c0,0-0.7,0-1.4,0.1c-0.3,0-0.7,0-1,0.1c-0.3,0-0.4,0-0.4,0l1,9c0,0,0.4,0,0.9-0.1
							c0.4,0,0.9-0.1,0.9-0.1v0.8c0,0-0.2,0-0.5,0s-0.8,0-1.3,0.1c-1.1,0.1-2.6,0.5-3.9,1c-1.4,0.6-2.7,1.4-3.5,2.1
							c-0.5,0.3-0.8,0.7-1,0.9s-0.4,0.3-0.4,0.3l-0.6-0.6c0,0,0.3-0.3,0.7-0.6c0.2-0.2,0.3-0.3,0.4-0.4c0.1-0.1,0.2-0.2,0.2-0.2
							l-5.7-7.1c0-0.1-2.1,1.8-2.1,1.8l-0.6-0.6c0,0,0.2-0.2,0.6-0.6c0.4-0.4,1-0.9,1.7-1.5c1.5-1.2,3.7-2.5,6-3.5
							c2.4-1,4.8-1.5,6.7-1.8c0.9-0.1,1.7-0.1,2.3-0.2C118.6,76.6,118.9,76.6,118.9,76.6z M109.4,89.6c0,0,0.2-0.1,0.4-0.3
							c0.3-0.2,0.7-0.4,1.1-0.7c0.4-0.3,0.8-0.4,1.1-0.6c0.3-0.1,0.5-0.2,0.5-0.2l-3.6-8.3c0,0-0.3,0.2-0.8,0.4s-1.1,0.5-1.7,0.9
							c-0.6,0.4-1.2,0.7-1.6,1c-0.4,0.3-0.7,0.5-0.7,0.5L109.4,89.6z M115.2,77.7c0,0-1.4,0.2-2.8,0.6c-0.3,0.1-0.7,0.2-1,0.3
							s-0.6,0.2-0.9,0.3c-0.5,0.2-0.8,0.3-0.8,0.3l3.3,8.4c0,0,0.2-0.1,0.5-0.2c0.2-0.1,0.3-0.1,0.5-0.2c0.2-0.1,0.4-0.1,0.6-0.2
							c0.9-0.3,1.8-0.4,1.8-0.4L115.2,77.7z"/>
					</g>
					<g>
						<path fill="#35141D" d="M137.2,84.1l-0.6,0.6c0,0-2-1.9-2.1-1.8l-5.7,7.1c0,0,0.1,0.1,0.2,0.2c0.1,0.1,0.3,0.3,0.4,0.4
							c0.3,0.3,0.7,0.6,0.7,0.6l-0.6,0.6c0,0-0.1-0.1-0.4-0.3c-0.3-0.2-0.6-0.6-1-0.9c-0.9-0.7-2.2-1.5-3.5-2.1
							c-1.4-0.6-2.8-0.9-3.9-1c-0.6-0.1-1-0.1-1.3-0.1s-0.5,0-0.5,0v-0.8c0,0,0.4,0,0.9,0.1c0.4,0,0.9,0,0.9,0.1l1-9
							c0,0-0.2,0-0.4,0c-0.3,0-0.6,0-1-0.1c-0.7,0-1.4-0.1-1.4-0.1v-1c0,0,0.3,0,0.9,0c0.6,0,1.3,0,2.3,0.2c1.9,0.2,4.4,0.8,6.7,1.8
							s4.5,2.3,6,3.5c0.8,0.5,1.3,1.1,1.7,1.5C136.9,83.9,137.2,84.1,137.2,84.1z M121.3,86.6c0,0,0.9,0.1,1.8,0.4
							c0.2,0.1,0.4,0.1,0.6,0.2c0.2,0.1,0.4,0.1,0.5,0.2c0.3,0.1,0.5,0.2,0.5,0.2l3.3-8.4c0,0-0.3-0.1-0.8-0.3
							c-0.2-0.1-0.5-0.2-0.9-0.3c-0.3-0.1-0.7-0.2-1-0.3c-1.4-0.4-2.8-0.6-2.8-0.6L121.3,86.6z M133.8,82.3c0,0-0.3-0.2-0.7-0.5
							s-1-0.7-1.6-1c-0.6-0.4-1.2-0.7-1.7-0.9s-0.8-0.4-0.8-0.4l-3.6,8.3c0,0,0.2,0.1,0.5,0.2c0.3,0.2,0.7,0.3,1.1,0.6
							c0.4,0.2,0.8,0.5,1.1,0.7s0.4,0.3,0.4,0.3L133.8,82.3z"/>
					</g>
					<g>
						<path fill="#35141D" d="M144.7,102.4h-0.8c0,0,0-0.7-0.1-1.4c0-0.3,0-0.7-0.1-1c0-0.3,0-0.4,0-0.4l-9,1c0,0,0,0.4,0.1,0.9
							c0,0.4,0.1,0.9,0.1,0.9h-0.8c0,0,0-0.2,0-0.5s0-0.8-0.1-1.3c-0.1-1.1-0.5-2.6-1-3.9c-0.6-1.4-1.4-2.7-2.1-3.5
							c-0.3-0.5-0.7-0.8-0.9-1s-0.3-0.4-0.3-0.4l0.6-0.6c0,0,0.3,0.3,0.6,0.7c0.2,0.2,0.3,0.3,0.4,0.4c0.1,0.1,0.2,0.2,0.2,0.2
							l7.1-5.7c0.1,0-1.8-2.1-1.8-2.1l0.6-0.6c0,0,0.2,0.2,0.6,0.6c0.4,0.4,0.9,1,1.5,1.7c1.2,1.5,2.5,3.7,3.5,6
							c1,2.4,1.5,4.8,1.8,6.7c0.1,0.9,0.1,1.7,0.2,2.3C144.7,102.1,144.7,102.4,144.7,102.4z M131.7,92.9c0,0,0.1,0.2,0.3,0.4
							c0.2,0.3,0.4,0.7,0.7,1.1c0.3,0.4,0.4,0.8,0.6,1.1c0.1,0.3,0.2,0.5,0.2,0.5l8.3-3.6c0,0-0.2-0.3-0.4-0.8s-0.5-1.1-0.9-1.7
							c-0.4-0.6-0.7-1.2-1-1.6c-0.3-0.4-0.5-0.7-0.5-0.7L131.7,92.9z M143.6,98.7c0,0-0.2-1.4-0.6-2.8c-0.1-0.3-0.2-0.7-0.3-1
							s-0.2-0.6-0.3-0.9c-0.2-0.5-0.3-0.8-0.3-0.8l-8.4,3.3c0,0,0.1,0.2,0.2,0.5c0.1,0.2,0.1,0.3,0.2,0.5c0.1,0.2,0.1,0.4,0.2,0.6
							c0.3,0.9,0.4,1.8,0.4,1.8L143.6,98.7z"/>
					</g>
				</g>
				<g>
					<circle fill="#5A246A" cx="118.9" cy="102.4" r="13.3"/>
					<circle fill="#F7F0F2" cx="114.3" cy="97.8" r="3.6"/>
				</g>
			</g>
		</g>
		<g>
			<path fill="#F17435" d="M227.8,30c0.3-2.2,2-3.9,3.6-5.4c10.5-10,23.1-17.9,36.6-23.1c-2.9,18.1-9.8,35.5-20.1,50.6
				C244.4,49.7,227.6,31.2,227.8,30z"/>
			<path fill="#5A246A" d="M248.8,52.6l-1.7-1.1C257,37,263.7,20.3,266.7,3C253.9,8.1,242,15.8,232,25.3c-1.5,1.4-3,3-3.3,4.9
				l-2-0.3c0.4-2.5,2.2-4.4,3.9-6c10.5-10.1,23.3-18.1,37-23.3l1.6-0.6L269,1.6C266.1,19.8,259.1,37.4,248.8,52.6z"/>
		</g>
		<g>
			<path fill="#F17435" d="M118.9,29.3c-1.2-3.7-9.4-11.8-12.8-13.7c-7.3-3.9-14.8-7.4-22.4-10.5C83,18,85.3,31.1,90.5,43
				c1,2.3,2.5,4.9,5,5.3c2,0.3,4-0.9,5.6-2.2C104.9,43.1,120.3,33.4,118.9,29.3z"/>
			<path fill="#5A246A" d="M96.2,49.4c-0.3,0-0.5,0-0.8-0.1c-3.1-0.5-4.8-3.6-5.8-5.9c-5.3-12-7.7-25.3-6.9-38.4l0.1-1.4l1.3,0.5
				c7.7,3.1,15.2,6.6,22.5,10.5c3.6,1.9,12,10.2,13.3,14.2l-1.9,0.8c-1.1-3.3-8.9-11.3-12.4-13.1c-6.8-3.6-13.9-7-21-9.9
				c-0.5,12.3,1.9,24.8,6.8,36c0.8,1.9,2.1,4.4,4.3,4.7c1.7,0.3,3.4-0.9,4.8-2l1.2,1.6C100.2,48.1,98.3,49.4,96.2,49.4z"/>
		</g>
		<g>
			<path fill="#FBB21D" d="M241.3,181.7c1,2.2,1.6,6.3,2.2,9.8s1.2,6.6,1.2,6.6s-2.6-1.6-5.5-4.1c-2.9-2.4-5.9-5.8-7.1-8.3
				c-1.1-2.5-1.5-5-1.3-7s1.1-3.4,2.4-3.8s2.8,0.2,4.2,1.4C239,177.6,240.3,179.4,241.3,181.7z"/>
		</g>
		<g>
			<path fill="#FBB21D" d="M261.1,215.9c1.6,1.2,3.6,4,5.2,6.5s2.9,4.8,2.9,4.8s-2.6-0.1-5.6-0.6s-6.5-1.4-8.3-2.6
				c-3.5-2.5-4.8-6.4-3.1-8.6C253.8,213.3,257.8,213.6,261.1,215.9z"/>
		</g>
		<g>
			<path fill="#FBB21D" d="M238.4,236.4c1,0.2,2.2,0.7,3.5,1.4c1.3,0.7,2.7,1.6,3.8,2.3c1.2,0.8,2.3,1.4,3.1,1.8
				c0.9,0.4,1.5,0.6,1.5,0.6s-0.5,0.4-1.4,1s-2.3,1.2-3.8,1.6c-1.5,0.5-3.1,0.8-4.5,1c-1.5,0.2-2.8,0.3-3.8,0.1
				c-4.1-0.7-7-3.5-6.4-6.2S234.4,235.7,238.4,236.4z"/>
		</g>
		<g>
			<path fill="#FBB21D" d="M211.5,247c1.8,0.3,4.6,1.9,7.1,3.3c2.4,1.4,4.6,2.7,4.6,2.7s-2.1,1.2-4.9,2.3c-2.8,1.1-6.2,1.9-8.3,1.6
				c-4.1-0.7-6.9-3.7-6.2-6.3C204.4,247.8,207.9,246.4,211.5,247z"/>
		</g>
		<g>
			<path fill="#FBB21D" d="M150,262.1c2,1.1,4.7,3.7,7.3,5.8c1.3,1.1,2.6,2.1,3.5,2.8s1.5,1.1,1.5,1.1s-0.7,0.2-1.9,0.4
				s-2.8,0.4-4.7,0.5c-3.7,0.2-8.1-0.4-10.5-1.7s-4.2-3.1-5.1-4.8c-0.9-1.7-1-3.4-0.1-4.4c0.8-1.1,2.4-1.5,4.1-1.4
				C146,260.5,148,261.1,150,262.1z"/>
		</g>
		<g>
			<path fill="#FBB21D" d="M118.3,241.2c1.8,1.7,4.2,5.1,6.5,8c1.1,1.4,2.2,2.8,3.1,3.7c0.8,1,1.4,1.6,1.4,1.6s-0.8,0-2.1-0.2
				c-1.3-0.1-3.1-0.4-5-0.9c-3.8-0.9-8.3-2.7-10.5-4.7c-2.2-1.9-3.7-4.2-4.2-6.2c-0.6-2-0.3-3.7,0.7-4.5c1.1-0.9,2.7-0.8,4.5-0.2
				C114.5,238.3,116.5,239.5,118.3,241.2z"/>
		</g>
		<g>
			<path fill="#FBB21D" d="M95,213.5c1.4,2.1,2.7,6.1,3.8,9.6s1.9,6.5,1.9,6.5s-2.8-1.4-5.9-3.5c-3.1-2.1-6.6-4.8-8.1-7.1
				c-3-4.5-3.3-9.4-0.9-10.8C88.2,206.8,92.2,209.3,95,213.5z"/>
		</g>
		<g>
			<path fill="#FBB21D" d="M86.1,186.3c0.9,2.3,1.2,6.3,1.2,9.8c0.1,3.5-0.1,6.4-0.1,6.4s-2.1-2-4.5-4.5c-2.4-2.6-5-5.7-5.9-8
				c-1.8-4.6-1.2-9.1,1.3-10.1C80.8,179,84.3,181.8,86.1,186.3z"/>
		</g>
		<g>
			<path fill="#FBB21D" d="M229.6,209.8c1.7,1.9,3.4,5.8,4.7,9.2c0.7,1.7,1.1,3.1,1.7,4.1c0.5,1,1.1,1.5,1.1,1.5s-0.2,0-0.5,0
				c-0.4,0-0.9-0.1-1.5-0.3c-1.3-0.3-2.9-1.2-4.5-2.1c-3.2-1.8-6.8-4-8.5-5.9c-3.4-3.9-4.4-8.5-2.3-10.3
				C221.8,204.3,226.2,206,229.6,209.8z"/>
		</g>
		<path fill="#FFF5BB" d="M116.6,211.3c-1.2-3.5-2.2-7.2-1.9-10.9s1.7-7.5,4.6-9.8c3-2.4,7.1-3,11-3c11.3-0.2,22.6,3.5,31.7,10.2
			c3.7-6.2,9.4-11.2,16.1-14.1c3.2-1.4,7-2.3,10.2-0.9c4,1.8,5.7,6.5,6.3,10.9c1.5,12.3-3.3,24.4-8.5,35.6
			c-5.3,11.2-11.3,22.4-12.5,34.8c-12.2-5.4-23.9-11.9-34-20.6C129.4,234.8,121,223.9,116.6,211.3z"/>
		<path fill="#E9215A" d="M180.3,205.9c1.4,3,0.1,6.5-1.1,9.5c-4.5,11.2-9,22.4-13.6,33.5c-10.8-5.3-20.1-13.5-26.7-23.5
			c-2.3-3.4-4.3-7.6-3-11.5c1.4-4.5,6.9-6.7,11.6-6.1s8.8,3.3,12.8,6c2.1-4,4.4-8.2,8.3-10.5S178.4,201.8,180.3,205.9z"/>
	</g>
	<path fill="#F26546" d="M160.7,126.3c-2.6,3.2-3.8,7.5-3.4,11.7c2.8,0.1,5.4-1.9,6.2-4.5C164.3,130.8,163.1,127.7,160.7,126.3z"/>
	<path fill="#FFF5BB" d="M76.2,114.3c0.4-6.6,0.8-13.3,1.3-19.9c-2.9,6.3-4.5,13.2-4.7,20.2c0,1.1,0.2,2.5,1.3,2.7
		C75.5,117.5,76.1,115.6,76.2,114.3z"/>
	<path fill="#FFF5BB" d="M72.4,146.6c1.7-0.1,2.1-2.3,2.1-4c-0.3-6.8-1-13.6-2.3-20.2c-1.9,6.7-2.7,13.6-2.2,20.5
		C70.1,144.6,70.8,146.7,72.4,146.6z"/>
	<path fill="#FFF5BB" d="M77.2,175.6c1.1-0.3,1.7-1.6,1.7-2.7s-0.4-2.2-0.9-3.3c-2.3-5.7-4.1-11.6-5.5-17.5
		c-0.9,6.4-0.7,13,0.6,19.4c0.2,1.1,0.5,2.2,1.2,3C75,175.4,76.2,175.9,77.2,175.6z"/>
	<path fill="#FFF5BB" d="M86.7,164.9c1.1-0.4,1.8-1.6,1.9-2.8c0.2-1.2-0.1-2.4-0.4-3.5c-1.7-6.9-3.9-13.6-6.2-20.2
		c-1.8,6.9-2,14.3-0.6,21.3c0.3,1.4,0.6,2.9,1.5,4C83.8,164.7,85.4,165.4,86.7,164.9z"/>
	<path fill="#FFF5BB" d="M80.4,130.2c0.3,1,0.7,2.1,1.5,2.8c0.8,0.7,2.1,1,3,0.3c0.9-0.7,0.9-2.1,0.7-3.3c-0.6-4.4-1.9-8.6-3.9-12.6
		C79.8,121.4,79.3,126,80.4,130.2z"/>
	<path fill="#FFF5BB" d="M82,75.1c-0.3,1.3-0.5,2.7,0.1,3.9c0.6,1.2,2.1,2,3.3,1.3c2.4-6,4.1-12.3,4.8-18.7
		C86.1,65,83.2,69.9,82,75.1z"/>
	<path fill="#FFF5BB" d="M102.6,158.5c1.5-1.6,1-4.4-0.5-6.1s-3.6-2.5-5.7-3.4c-2-0.9-4.1-2-5.3-3.9c-0.4,4,0.8,8.1,3.3,11.3
		c1,1.3,2.2,2.4,3.7,2.9C99.7,159.9,101.5,159.7,102.6,158.5z"/>
	<path fill="#FFF5BB" d="M91.4,163c-0.6,1.8-1.2,3.6-1.1,5.5c0.1,1.9,0.9,3.9,2.6,4.8s4.1,0.2,4.7-1.6c0.6-1.8-0.8-3.6-2.3-4.8
		S92.1,164.7,91.4,163z"/>
	<path fill="#FFF5BB" d="M139.3,35.4c0.8-0.5,1.1-1.6,0.9-2.5c-0.2-0.9-0.9-1.7-1.6-2.3c-4.1-3.9-10-5.8-15.5-5c4.3,3,8.6,6,12.9,9
		C136.9,35.2,138.2,36,139.3,35.4z"/>
	<path fill="#FFF5BB" d="M139.2,48.8c0.4-1.1-0.1-2.3-0.6-3.3c-2.7-4.9-7.3-8.7-12.7-10.4c2,3.7,4,7.3,6,11c0.8,1.5,1.6,3,3.1,3.8
		C136.4,50.7,138.6,50.4,139.2,48.8z"/>
	<path fill="#FFF5BB" d="M146,51.8c1,1.6,2.2,3.2,4,4c1.8,0.7,4.2,0.1,4.8-1.7c0.5-1.5-0.3-3.1-1.2-4.4c-3-4.2-7.3-7.5-12.2-9.2
		C142.2,44.4,143.8,48.3,146,51.8z"/>
	<path fill="#FBB21D" d="M183,50.4c-5.2,0.3-10.5,0.5-15.2,2.7s-8.7,6.7-8.6,11.9c3,1.5,6.7,0.4,9.3-1.6s4.5-4.9,6.6-7.4
		C177.2,53.5,179.8,51.1,183,50.4z"/>
	<path fill="#FBB21D" d="M172.9,39.8c-1.5,0.9-3,1.9-3.8,3.5c-0.9,1.5-1,3.6,0.2,4.9c1.1,1.2,3,1.5,4.5,1s2.9-1.5,4.1-2.6
		c4.4-4,8.3-9.1,13.9-11C185.3,35,178.6,36.5,172.9,39.8z"/>
	<path fill="#FBB21D" d="M158.4,38.1c4.2-2.2,8.8-3.7,13.4-4.3c-2,0.5-3.6,2.1-4.7,3.8c-1.1,1.7-2,3.6-3.2,5.3s-2.9,3.1-5,3.4
		s-4.3-1.2-4.5-3.2C154.3,40.8,156.5,39.2,158.4,38.1z"/>
	<path fill="#FBB21D" d="M211.5,44.2c-5,2.5-10,5.1-15.4,6.6c-1.4,0.4-2.8,0.8-4.2,0.6c-1.4-0.1-2.9-0.9-3.5-2.1
		c-0.9-1.7-0.1-3.9,1.3-5.2c1.4-1.3,3.4-1.9,5.2-2.4C201.4,39.9,204.8,43.5,211.5,44.2z"/>
</g>
</svg>