<!-- Generator: Adobe Illustrator 18.1.1, SVG Export Plug-In  -->
<svg version="1.1"
	 xmlns="http://www.w3.org/2000/svg" xmlns:xlink="http://www.w3.org/1999/xlink" xmlns:a="http://ns.adobe.com/AdobeSVGViewerExtensions/3.0/"
	 x="0px" y="0px" width="1207.8px" height="346px" viewBox="0 0 1207.8 346" enable-background="new 0 0 1207.8 346"
	 xml:space="preserve">
<defs>
</defs>
<g>
	<g>
		<g>
			<linearGradient id="SVGID_1_" gradientUnits="userSpaceOnUse" x1="327.3555" y1="112.6452" x2="549.6138" y2="112.6452">
				<stop  offset="0" style="stop-color:#72BF44"/>
				<stop  offset="1" style="stop-color:#A6CE39"/>
			</linearGradient>
			<path fill="url(#SVGID_1_)" d="M505.2,1.5H371.8c-24.4,0-44.5,20-44.5,44.5v133.4c0,24.4,20,44.5,44.5,44.5h133.4
				c24.4,0,44.5-20,44.5-44.5V46C549.6,21.5,529.6,1.5,505.2,1.5z"/>
		</g>
		<path fill="#FFFFFF" d="M492.6,189.3c10,0,22.7-12,22.7-22c0-9.6-29.9-32.3-41.2-32.3c-11.3,0-12.4,12-21.6,10L406,98.5
			c-2.1-9.3,10-10.3,10-21.6c0-11.3-22.7-41.2-32.3-41.2c-10,0-22,12.7-22,22.7c0,0-1.8,34.1,50.1,86
			C463.6,196.2,492.6,189.3,492.6,189.3z"/>
	</g>
	<linearGradient id="SVGID_2_" gradientUnits="userSpaceOnUse" x1="438.4846" y1="234.897" x2="438.4846" y2="346.0259">
		<stop  offset="0" style="stop-color:#000000"/>
		<stop  offset="1" style="stop-color:#000000;stop-opacity:0"/>
	</linearGradient>
	<path opacity="0.1" fill="url(#SVGID_2_)" d="M549.6,346v-66.7c0-24.4-20-44.5-44.5-44.5H371.8c-24.4,0-44.5,20-44.5,44.5V346
		H549.6z"/>
</g>
<g>
	<g>
		<linearGradient id="SVGID_3_" gradientUnits="userSpaceOnUse" x1="0" y1="111.1289" x2="222.2583" y2="111.1289">
			<stop  offset="0" style="stop-color:#72BF44"/>
			<stop  offset="1" style="stop-color:#A6CE39"/>
		</linearGradient>
		<path fill="url(#SVGID_3_)" d="M177.8,0H44.5C20,0,0,20,0,44.5v133.4c0,24.4,20,44.5,44.5,44.5h133.4c24.4,0,44.5-20,44.5-44.5
			V44.5C222.3,20,202.3,0,177.8,0z"/>
		<path fill="#FFFFFF" d="M111.1,43c-42.5,0-76.9,28.4-76.9,63.4c0,23.2,15.1,43.4,37.6,54.5c-0.6,7.4-4.1,15.9-9.5,18.4
			c11.2,1.1,20.8-5.5,27.3-12c6.8,1.6,14.1,2.5,21.6,2.5c42.5,0,76.9-28.4,76.9-63.4C188.1,71.3,153.6,43,111.1,43z"/>
	</g>
	<linearGradient id="SVGID_4_" gradientUnits="userSpaceOnUse" x1="111.1292" y1="233.3804" x2="111.1292" y2="344.5093">
		<stop  offset="0" style="stop-color:#000000"/>
		<stop  offset="1" style="stop-color:#000000;stop-opacity:0"/>
	</linearGradient>
	<path opacity="0.1" fill="url(#SVGID_4_)" d="M222.3,344.5v-66.7c0-24.4-20-44.5-44.5-44.5H44.5C20,233.4,0,253.4,0,277.8v66.7
		H222.3z"/>
</g>
<g>
	<g>
		<linearGradient id="SVGID_5_" gradientUnits="userSpaceOnUse" x1="657.0186" y1="111.1289" x2="879.2769" y2="111.1289">
			<stop  offset="0" style="stop-color:#ECECED"/>
			<stop  offset="1" style="stop-color:#F1F2F2"/>
		</linearGradient>
		<path fill="url(#SVGID_5_)" d="M834.8,0H701.5C677,0,657,20,657,44.5v133.4c0,24.4,20,44.5,44.5,44.5h133.4
			c24.4,0,44.5-20,44.5-44.5V44.5C879.3,20,859.3,0,834.8,0z"/>
		<path opacity="0.7" fill="#008FD5" d="M795.3,144.9c0-15.7-12.7-28.3-28.3-28.3c-15.7,0-28.3,12.7-28.3,28.3c0,5.2,0,23.2,0,28.3
			c0,15.7,12.7,28.3,28.3,28.3c15.7,0,28.3-12.7,28.3-28.3C795.3,168.1,795.3,150.1,795.3,144.9z"/>
		<path opacity="0.7" fill="#92278F" d="M763.5,154.2c11.1-11.1,11.1-29,0-40.1c-11.1-11.1-29-11.1-40.1,0c-3.7,3.7-16.4,16.4-20,20
			c-11.1,11.1-11.1,29,0,40.1c11.1,11.1,29,11.1,40.1,0C747.1,170.6,759.8,157.9,763.5,154.2z"/>
		<path opacity="0.7" fill="#EC008C" d="M734.4,138.3c15.7,0,28.3-12.7,28.3-28.3c0-15.7-12.7-28.3-28.3-28.3c-5.2,0-23.2,0-28.3,0
			c-15.7,0-28.3,12.7-28.3,28.3c0,15.7,12.7,28.3,28.3,28.3C711.2,138.3,729.2,138.3,734.4,138.3z"/>
		<path opacity="0.7" fill="#ED1C24" d="M725,106.5c11.1,11.1,29,11.1,40.1,0c11.1-11.1,11.1-29,0-40.1c-3.7-3.7-16.4-16.4-20-20
			c-11.1-11.1-29-11.1-40.1,0c-11.1,11.1-11.1,29,0,40.1C708.6,90.1,721.4,102.8,725,106.5z"/>
		<path opacity="0.7" fill="#F26522" d="M741,77.3c0,15.7,12.7,28.3,28.3,28.3c15.6,0,28.3-12.7,28.3-28.3c0-5.2,0-23.2,0-28.3
			c0-15.7-12.7-28.3-28.3-28.3C753.6,20.7,741,33.4,741,49C741,54.2,741,72.2,741,77.3z"/>
		<path opacity="0.7" fill="#FFC20E" d="M772.8,68c-11.1,11.1-11.1,29,0,40.1c11.1,11.1,29,11.1,40.1,0c3.7-3.7,16.4-16.4,20-20
			C844,77,844,59,832.9,48c-11.1-11.1-29-11.1-40.1,0C789.2,51.6,776.5,64.4,772.8,68z"/>
		<path opacity="0.7" fill="#BFD730" d="M801.9,83.9c-15.7,0-28.3,12.7-28.3,28.3c0,15.6,12.7,28.3,28.3,28.3c5.2,0,23.2,0,28.3,0
			c15.7,0,28.3-12.7,28.3-28.3c0-15.6-12.7-28.3-28.3-28.3C825.1,83.9,807.1,83.9,801.9,83.9z"/>
		<path opacity="0.7" fill="#39BB9D" d="M811.3,115.8c-11.1-11.1-29-11.1-40.1,0c-11.1,11.1-11.1,29,0,40.1c3.7,3.7,16.4,16.4,20,20
			c11.1,11.1,29,11.1,40.1,0c11.1-11.1,11.1-29,0-40.1C827.6,132.2,814.9,119.4,811.3,115.8z"/>
	</g>
	<linearGradient id="SVGID_6_" gradientUnits="userSpaceOnUse" x1="768.1478" y1="233.3804" x2="768.1478" y2="344.5093">
		<stop  offset="0" style="stop-color:#000000"/>
		<stop  offset="1" style="stop-color:#000000;stop-opacity:0"/>
	</linearGradient>
	<path opacity="0.1" fill="url(#SVGID_6_)" d="M879.3,344.5v-66.7c0-24.4-20-44.5-44.5-44.5H701.5c-24.4,0-44.5,20-44.5,44.5v66.7
		H879.3z"/>
</g>
<g>
	<g>
		<path fill="#414042" d="M1163.3,0H1030c-24.4,0-44.5,20-44.5,44.5v133.4c0,24.4,20,44.5,44.5,44.5h133.4c24.4,0,44.5-20,44.5-44.5
			V44.5C1207.8,20,1187.8,0,1163.3,0z"/>
		<g>
			<path fill="#FFFFFF" d="M1096.7,91.1c-15.1,0-27.4,12.3-27.4,27.4c0,15.1,12.3,27.4,27.4,27.4s27.4-12.3,27.4-27.4
				C1124.1,103.4,1111.8,91.1,1096.7,91.1z"/>
			<path fill="#FFFFFF" d="M1137.6,63.6l-8.8-19.3h-64.3l-8.8,19.3h-40.3v109.9h162.5V63.6H1137.6z M1096.7,155.8
				c-20.5,0-37.2-16.7-37.2-37.2c0-20.5,16.7-37.2,37.2-37.2c20.5,0,37.2,16.7,37.2,37.2C1133.9,139.1,1117.2,155.8,1096.7,155.8z
				 M1136.8,88.3c-2.6,0-4.7-2.1-4.7-4.7c0-2.6,2.1-4.7,4.7-4.7c2.6,0,4.7,2.1,4.7,4.7C1141.5,86.2,1139.4,88.3,1136.8,88.3z"/>
		</g>
	</g>
	<linearGradient id="SVGID_7_" gradientUnits="userSpaceOnUse" x1="1096.657" y1="233.3804" x2="1096.657" y2="344.5093">
		<stop  offset="0" style="stop-color:#000000"/>
		<stop  offset="1" style="stop-color:#000000;stop-opacity:0"/>
	</linearGradient>
	<path opacity="0.1" fill="url(#SVGID_7_)" d="M1207.8,344.5v-66.7c0-24.4-20-44.5-44.5-44.5H1030c-24.4,0-44.5,20-44.5,44.5v66.7
		H1207.8z"/>
</g>
</svg>