<!-- Generator: Adobe Illustrator 18.1.1, SVG Export Plug-In  -->
<svg version="1.1"
	 xmlns="http://www.w3.org/2000/svg" xmlns:xlink="http://www.w3.org/1999/xlink" xmlns:a="http://ns.adobe.com/AdobeSVGViewerExtensions/3.0/"
	 x="0px" y="0px" width="1207.8px" height="679.7px" viewBox="0 0 1207.8 679.7" enable-background="new 0 0 1207.8 679.7"
	 xml:space="preserve">
<defs>
</defs>
<g>
	<g>
		<linearGradient id="SVGID_1_" gradientUnits="userSpaceOnUse" x1="328.5098" y1="111.1292" x2="550.7676" y2="111.1292">
			<stop  offset="0" style="stop-color:#00B9F2"/>
			<stop  offset="1" style="stop-color:#6DCFF6"/>
		</linearGradient>
		<path fill="url(#SVGID_1_)" d="M506.3,0H373c-24.4,0-44.5,20-44.5,44.5v133.4c0,24.4,20,44.5,44.5,44.5h133.4
			c24.4,0,44.5-20,44.5-44.5V44.5C550.8,20,530.8,0,506.3,0z"/>
		<g>
			<linearGradient id="SVGID_2_" gradientUnits="userSpaceOnUse" x1="353.1143" y1="96.6846" x2="456.7666" y2="96.6846">
				<stop  offset="0" style="stop-color:#FFC20E"/>
				<stop  offset="1" style="stop-color:#FFDD00"/>
			</linearGradient>
			<circle fill="url(#SVGID_2_)" cx="404.9" cy="96.7" r="51.8"/>
			<path opacity="0.9" fill="#FFFFFF" d="M486,94.9c-5.5,0-10.8,1.1-15.6,3.1c-6.3-10.8-18-18.1-31.4-18.1
				c-20,0-36.3,16.2-36.3,36.3c0,0.3,0,0.5,0,0.8c-13,3.1-22.7,14.7-22.7,28.7c0,16.3,13.2,29.5,29.5,29.5c13.9,0,60,0,76.4,0
				c22.2,0,40.1-18,40.1-40.1C526.2,112.9,508.2,94.9,486,94.9z"/>
		</g>
	</g>
	<linearGradient id="SVGID_3_" gradientUnits="userSpaceOnUse" x1="439.6387" y1="233.3809" x2="439.6387" y2="344.5098">
		<stop  offset="0" style="stop-color:#000000"/>
		<stop  offset="1" style="stop-color:#000000;stop-opacity:0"/>
	</linearGradient>
	<path opacity="0.1" fill="url(#SVGID_3_)" d="M550.8,344.5v-66.7c0-24.4-20-44.5-44.5-44.5H373c-24.4,0-44.5,20-44.5,44.5v66.7
		H550.8z"/>
</g>
<g>
	<g>
		<g>
			<linearGradient id="SVGID_4_" gradientUnits="userSpaceOnUse" x1="657.0186" y1="111.1292" x2="879.2769" y2="111.1292">
				<stop  offset="0" style="stop-color:#F15B40"/>
				<stop  offset="1" style="stop-color:#F58466"/>
			</linearGradient>
			<path fill="url(#SVGID_4_)" d="M834.8,0H701.5C677,0,657,20,657,44.5v133.4c0,24.4,20,44.5,44.5,44.5h133.4
				c24.4,0,44.5-20,44.5-44.5V44.5C879.3,20,859.3,0,834.8,0z"/>
		</g>
		<path fill="#FFFFFF" d="M745.9,83.7v83c0,7.6-6.2,13.7-13.7,13.7h-17.5c-8.4,0-15.2-6.8-15.2-15.2c0-8.4,6.8-15.2,15.2-15.2h16.9
			c3.2,0,5.8-2.6,5.8-5.8V54l86.1-18.9v116.6c0,7.6-6.1,13.7-13.7,13.7h-17.5c-8.4,0-15.2-6.8-15.2-15.2c0-8.4,6.8-15.2,15.2-15.2
			h16.9c3.2,0,5.8-2.6,5.8-5.8V68L745.9,83.7z"/>
	</g>
	<linearGradient id="SVGID_5_" gradientUnits="userSpaceOnUse" x1="768.1478" y1="233.3809" x2="768.1478" y2="344.5098">
		<stop  offset="0" style="stop-color:#000000"/>
		<stop  offset="1" style="stop-color:#000000;stop-opacity:0"/>
	</linearGradient>
	<path opacity="0.1" fill="url(#SVGID_5_)" d="M879.3,344.5v-66.7c0-24.4-20-44.5-44.5-44.5H701.5c-24.4,0-44.5,20-44.5,44.5v66.7
		H879.3z"/>
</g>
<g>
	<g>
		<g>
			<g>
				<linearGradient id="SVGID_6_" gradientUnits="userSpaceOnUse" x1="985.5279" y1="111.1292" x2="1207.7861" y2="111.1292">
					<stop  offset="0" style="stop-color:#ECECED"/>
					<stop  offset="1" style="stop-color:#F1F2F2"/>
				</linearGradient>
				<path fill="url(#SVGID_6_)" d="M1163.3,0H1030c-24.4,0-44.5,20-44.5,44.5v133.4c0,24.4,20,44.5,44.5,44.5h133.4
					c24.4,0,44.5-20,44.5-44.5V44.5C1207.8,20,1187.8,0,1163.3,0z"/>
			</g>
		</g>
		<g>
			<linearGradient id="SVGID_7_" gradientUnits="userSpaceOnUse" x1="1011.729" y1="111.1289" x2="1181.5845" y2="111.1289">
				<stop  offset="0" style="stop-color:#00B9F2"/>
				<stop  offset="1" style="stop-color:#6DCFF6"/>
			</linearGradient>
			<circle fill="url(#SVGID_7_)" cx="1096.7" cy="111.1" r="84.9"/>
			<path opacity="0.4" fill="#FFFFFF" d="M1163.6,111.1l-16.3-9.4c-1.6-8.9-5.5-16.9-11.1-23.6l3.1-9.8l-9.8,3.1
				c-6.7-5.5-14.7-9.4-23.6-11.1l-9.4-16.3l-9.4,16.3c-8.9,1.6-16.9,5.5-23.6,11.1l-9.8-3.1l3.1,9.8c-5.5,6.7-9.4,14.7-11.1,23.6
				l-16.3,9.4l16.3,9.4c1.6,8.9,5.5,16.9,11.1,23.6l-3.1,9.8l9.8-3.1c6.7,5.5,14.7,9.4,23.6,11.1l9.4,16.3l9.4-16.3
				c8.9-1.6,16.9-5.5,23.6-11.1l9.8,3.1l-3.1-9.8c5.5-6.7,9.4-14.7,11.1-23.6L1163.6,111.1z M1096.7,144.9
				c-18.7,0-33.8-15.1-33.8-33.8c0-18.7,15.1-33.8,33.8-33.8c18.7,0,33.8,15.1,33.8,33.8C1130.4,129.8,1115.3,144.9,1096.7,144.9z"
				/>
			<polygon fill="#FFFFFF" points="1087.7,102.2 1149.6,58.2 1105.6,120.1 			"/>
			<polygon fill="#ED1C24" points="1087.7,102.2 1043.7,164.1 1105.6,120.1 			"/>
		</g>
	</g>
	<linearGradient id="SVGID_8_" gradientUnits="userSpaceOnUse" x1="1096.657" y1="233.3809" x2="1096.657" y2="344.5098">
		<stop  offset="0" style="stop-color:#000000"/>
		<stop  offset="1" style="stop-color:#000000;stop-opacity:0"/>
	</linearGradient>
	<path opacity="0.1" fill="url(#SVGID_8_)" d="M1207.8,344.5v-66.7c0-24.4-20-44.5-44.5-44.5H1030c-24.4,0-44.5,20-44.5,44.5v66.7
		H1207.8z"/>
</g>
<g>
	<g>
		<path fill="#414042" d="M177.8,335.2H44.5C20,335.2,0,355.2,0,379.6V513c0,24.4,20,44.5,44.5,44.5h133.4c24.4,0,44.5-20,44.5-44.5
			V379.6C222.3,355.2,202.3,335.2,177.8,335.2z"/>
		<circle fill="#FFFFFF" cx="111.1" cy="446.3" r="87.7"/>
		<g>
			<g>
				<g>
					<path fill="#414042" d="M105.4,387.2h-2.1v-13.7l-4.1,1.5v-1.9l5.9-2.2h0.3V387.2z"/>
					<path fill="#414042" d="M121.6,387.2H111v-1.5l5.3-5.9c0.5-0.5,0.9-1,1.2-1.4c0.3-0.4,0.6-0.8,0.8-1.1c0.2-0.3,0.3-0.7,0.4-1
						c0.1-0.3,0.1-0.6,0.1-0.9c0-0.4-0.1-0.8-0.2-1.1c-0.1-0.4-0.3-0.7-0.5-0.9c-0.2-0.3-0.5-0.5-0.9-0.6c-0.3-0.2-0.7-0.2-1.2-0.2
						c-0.5,0-1,0.1-1.4,0.2c-0.4,0.2-0.7,0.4-1,0.7c-0.3,0.3-0.5,0.6-0.6,1c-0.1,0.4-0.2,0.8-0.2,1.3h-2.1c0-0.7,0.1-1.3,0.3-1.9
						c0.2-0.6,0.6-1.1,1-1.6s1-0.8,1.7-1.1c0.7-0.3,1.4-0.4,2.3-0.4c0.8,0,1.4,0.1,2,0.3c0.6,0.2,1.1,0.5,1.5,0.9
						c0.4,0.4,0.7,0.8,1,1.4c0.2,0.5,0.3,1.1,0.3,1.8c0,0.5-0.1,1-0.2,1.4c-0.2,0.5-0.4,1-0.7,1.4c-0.3,0.5-0.6,1-1,1.4
						c-0.4,0.5-0.8,0.9-1.2,1.4l-4.3,4.7h8.1V387.2z"/>
				</g>
				<g>
					<path fill="#414042" d="M144.2,398.2h-2.1v-13.7L138,386v-1.9l5.9-2.2h0.3V398.2z"/>
				</g>
				<g>
					<path fill="#414042" d="M172.2,423.4h-10.6v-1.5l5.3-5.9c0.5-0.5,0.9-1,1.2-1.4c0.3-0.4,0.6-0.8,0.8-1.1c0.2-0.3,0.3-0.7,0.4-1
						c0.1-0.3,0.1-0.6,0.1-0.9c0-0.4-0.1-0.8-0.2-1.1c-0.1-0.4-0.3-0.7-0.5-0.9c-0.2-0.3-0.5-0.5-0.9-0.6c-0.3-0.2-0.7-0.2-1.2-0.2
						c-0.5,0-1,0.1-1.4,0.2c-0.4,0.2-0.7,0.4-1,0.7c-0.3,0.3-0.5,0.6-0.6,1c-0.1,0.4-0.2,0.8-0.2,1.3h-2.1c0-0.7,0.1-1.3,0.3-1.9
						c0.2-0.6,0.6-1.1,1-1.6s1-0.8,1.7-1.1c0.7-0.3,1.4-0.4,2.3-0.4c0.8,0,1.4,0.1,2,0.3c0.6,0.2,1.1,0.5,1.5,0.9
						c0.4,0.4,0.7,0.8,1,1.4c0.2,0.5,0.3,1.1,0.3,1.8c0,0.5-0.1,1-0.2,1.4c-0.2,0.5-0.4,1-0.7,1.4c-0.3,0.5-0.6,1-1,1.4
						c-0.4,0.5-0.8,0.9-1.2,1.4l-4.3,4.7h8.1V423.4z"/>
				</g>
				<g>
					<path fill="#414042" d="M178.1,444.2h1.5c0.5,0,1-0.1,1.4-0.2s0.7-0.3,1-0.6c0.3-0.2,0.5-0.5,0.6-0.9c0.1-0.3,0.2-0.7,0.2-1.1
						c0-0.9-0.2-1.6-0.7-2.1c-0.5-0.5-1.2-0.7-2.1-0.7c-0.4,0-0.8,0.1-1.2,0.2c-0.4,0.1-0.7,0.3-0.9,0.6s-0.5,0.5-0.6,0.9
						c-0.1,0.3-0.2,0.7-0.2,1.1H175c0-0.6,0.1-1.2,0.4-1.7s0.6-1,1-1.4c0.4-0.4,1-0.7,1.6-1c0.6-0.2,1.3-0.3,2-0.3
						c0.7,0,1.4,0.1,2,0.3c0.6,0.2,1.1,0.5,1.5,0.9c0.4,0.4,0.8,0.9,1,1.4s0.4,1.2,0.4,2c0,0.3,0,0.6-0.1,1c-0.1,0.3-0.3,0.7-0.5,1
						c-0.2,0.3-0.5,0.6-0.8,0.9c-0.3,0.3-0.7,0.5-1.1,0.7c0.5,0.2,1,0.4,1.3,0.7s0.6,0.6,0.9,0.9c0.2,0.3,0.4,0.7,0.5,1.1
						c0.1,0.4,0.1,0.7,0.1,1.1c0,0.8-0.1,1.4-0.4,2c-0.3,0.6-0.6,1.1-1.1,1.5c-0.5,0.4-1,0.7-1.6,0.9c-0.6,0.2-1.3,0.3-2,0.3
						c-0.7,0-1.4-0.1-2-0.3c-0.6-0.2-1.2-0.5-1.6-0.9c-0.5-0.4-0.8-0.9-1.1-1.4s-0.4-1.2-0.4-1.9h2.1c0,0.4,0.1,0.8,0.2,1.1
						c0.1,0.3,0.3,0.6,0.6,0.9c0.3,0.2,0.6,0.4,1,0.6s0.8,0.2,1.3,0.2c0.5,0,0.9-0.1,1.3-0.2s0.7-0.3,1-0.6c0.3-0.3,0.5-0.6,0.6-0.9
						c0.1-0.4,0.2-0.8,0.2-1.3c0-0.5-0.1-0.9-0.2-1.3c-0.2-0.4-0.4-0.7-0.7-0.9c-0.3-0.2-0.7-0.4-1.1-0.5c-0.4-0.1-0.9-0.2-1.4-0.2
						h-1.5V444.2z"/>
				</g>
				<g>
					<path fill="#414042" d="M170.3,478h2.2v1.7h-2.2v3.8h-2.1v-3.8h-7.4v-1.2l7.2-11.2h2.2V478z M163.2,478h5v-7.9l-0.2,0.4
						L163.2,478z"/>
				</g>
				<g>
					<path fill="#414042" d="M137.9,500.3l0.8-8.1h8.3v1.9h-6.5l-0.5,4.4c0.3-0.2,0.7-0.3,1.1-0.5c0.5-0.1,1-0.2,1.6-0.2
						c0.7,0,1.4,0.1,2,0.4s1.1,0.6,1.5,1.1c0.4,0.5,0.7,1,1,1.7c0.2,0.7,0.3,1.4,0.3,2.2c0,0.8-0.1,1.5-0.3,2.1
						c-0.2,0.7-0.5,1.2-0.9,1.7c-0.4,0.5-1,0.9-1.6,1.1s-1.4,0.4-2.3,0.4c-0.7,0-1.3-0.1-1.8-0.3s-1.1-0.5-1.5-0.8
						c-0.5-0.4-0.8-0.8-1.1-1.4c-0.3-0.6-0.5-1.2-0.5-2h1.9c0.1,0.9,0.5,1.6,1,2.1c0.5,0.5,1.2,0.7,2.1,0.7c0.5,0,0.9-0.1,1.3-0.3
						c0.4-0.2,0.7-0.4,1-0.7c0.3-0.3,0.5-0.7,0.6-1.2c0.1-0.5,0.2-1,0.2-1.5c0-0.5-0.1-1-0.2-1.4s-0.3-0.8-0.6-1.1
						c-0.3-0.3-0.6-0.6-1-0.8c-0.4-0.2-0.9-0.3-1.4-0.3c-0.3,0-0.6,0-0.9,0.1c-0.3,0-0.5,0.1-0.7,0.2s-0.4,0.2-0.5,0.3
						s-0.3,0.3-0.5,0.4L137.9,500.3z"/>
				</g>
				<g>
					<path fill="#414042" d="M112.9,505.4v1.7h-0.2c-1,0-1.8,0.1-2.5,0.4c-0.7,0.3-1.3,0.7-1.7,1.2c-0.4,0.5-0.8,1.1-1,1.7
						c-0.2,0.6-0.4,1.3-0.4,2c0.4-0.5,1-0.9,1.6-1.1s1.2-0.3,1.9-0.3c0.8,0,1.5,0.2,2.1,0.5c0.6,0.3,1.1,0.7,1.4,1.2
						s0.7,1.1,0.8,1.7s0.3,1.3,0.3,2c0,0.8-0.1,1.5-0.3,2.2c-0.2,0.7-0.5,1.3-1,1.7s-0.9,0.9-1.6,1.2c-0.6,0.3-1.3,0.4-2.2,0.4
						c-0.9,0-1.6-0.2-2.3-0.5c-0.7-0.4-1.2-0.8-1.6-1.4c-0.4-0.6-0.8-1.3-1-2c-0.2-0.7-0.3-1.5-0.3-2.2v-1c0-0.8,0-1.5,0.1-2.3
						c0.1-0.8,0.3-1.5,0.5-2.2c0.2-0.7,0.5-1.3,0.9-1.9c0.4-0.6,0.9-1.1,1.4-1.5c0.6-0.4,1.3-0.8,2-1s1.7-0.4,2.7-0.4H112.9z
						 M110.2,512.7c-0.4,0-0.7,0.1-1,0.2c-0.3,0.1-0.6,0.3-0.9,0.5c-0.3,0.2-0.5,0.4-0.7,0.7s-0.4,0.6-0.5,0.9v0.8
						c0,0.7,0.1,1.4,0.3,1.9c0.2,0.6,0.4,1,0.7,1.4c0.3,0.4,0.6,0.7,1,0.8c0.4,0.2,0.8,0.3,1.2,0.3c0.5,0,0.9-0.1,1.3-0.3
						c0.4-0.2,0.7-0.4,0.9-0.8s0.4-0.7,0.6-1.2s0.2-0.9,0.2-1.5c0-0.5-0.1-0.9-0.2-1.4c-0.1-0.4-0.3-0.8-0.5-1.2
						c-0.2-0.3-0.6-0.6-0.9-0.8C111.1,512.8,110.7,512.7,110.2,512.7z"/>
				</g>
				<g>
					<path fill="#414042" d="M84.4,493.4l-6.7,15h-2.2l6.7-14.5h-8.7v-1.7h10.9V493.4z"/>
				</g>
				<g>
					<path fill="#414042" d="M62,471.5c0,0.8-0.2,1.5-0.6,2.2c-0.4,0.6-1,1.1-1.7,1.5c0.4,0.2,0.8,0.4,1.1,0.7
						c0.3,0.3,0.6,0.6,0.9,0.9c0.2,0.3,0.4,0.7,0.6,1.1s0.2,0.8,0.2,1.3c0,0.7-0.1,1.4-0.4,2c-0.3,0.6-0.6,1-1.1,1.4
						c-0.5,0.4-1,0.7-1.6,0.9c-0.6,0.2-1.3,0.3-2,0.3c-0.7,0-1.4-0.1-2-0.3s-1.2-0.5-1.6-0.9c-0.5-0.4-0.8-0.9-1.1-1.4
						c-0.3-0.6-0.4-1.2-0.4-2c0-0.5,0.1-0.9,0.2-1.3s0.3-0.8,0.5-1.1c0.2-0.3,0.5-0.6,0.8-0.9c0.3-0.3,0.7-0.5,1.1-0.7
						c-0.7-0.4-1.3-0.8-1.7-1.5c-0.4-0.6-0.6-1.3-0.6-2.1c0-0.7,0.1-1.3,0.4-1.9s0.6-1,1-1.4c0.4-0.4,0.9-0.7,1.5-0.9
						c0.6-0.2,1.2-0.3,1.9-0.3c0.7,0,1.3,0.1,1.9,0.3c0.6,0.2,1.1,0.5,1.5,0.9c0.4,0.4,0.8,0.8,1,1.4S62,470.8,62,471.5z M60.3,479
						c0-0.5-0.1-0.9-0.2-1.2c-0.2-0.4-0.4-0.7-0.6-1c-0.3-0.3-0.6-0.5-1-0.6c-0.4-0.1-0.8-0.2-1.3-0.2c-0.5,0-0.9,0.1-1.3,0.2
						c-0.4,0.1-0.7,0.4-1,0.6c-0.3,0.3-0.5,0.6-0.6,1c-0.1,0.4-0.2,0.8-0.2,1.2c0,0.5,0.1,0.9,0.2,1.2c0.1,0.4,0.3,0.7,0.6,0.9
						c0.3,0.3,0.6,0.4,1,0.6c0.4,0.1,0.8,0.2,1.3,0.2c0.5,0,0.9-0.1,1.3-0.2c0.4-0.1,0.7-0.3,1-0.6c0.3-0.3,0.5-0.6,0.6-0.9
						C60.3,479.9,60.3,479.5,60.3,479z M59.9,471.5c0-0.4-0.1-0.8-0.2-1.1s-0.3-0.6-0.6-0.9c-0.2-0.2-0.5-0.4-0.9-0.6
						c-0.3-0.1-0.7-0.2-1.1-0.2c-0.4,0-0.8,0.1-1.1,0.2c-0.3,0.1-0.6,0.3-0.9,0.6c-0.2,0.2-0.4,0.5-0.6,0.9
						c-0.1,0.3-0.2,0.7-0.2,1.2c0,0.4,0.1,0.8,0.2,1.1s0.3,0.6,0.5,0.9c0.2,0.2,0.5,0.4,0.9,0.6s0.7,0.2,1.1,0.2
						c0.4,0,0.8-0.1,1.1-0.2s0.6-0.3,0.9-0.6c0.2-0.2,0.4-0.5,0.5-0.9S59.9,471.9,59.9,471.5z"/>
				</g>
				<g>
					<path fill="#414042" d="M39.8,451.6c1.1,0,2-0.1,2.7-0.4c0.7-0.3,1.3-0.7,1.7-1.2c0.4-0.5,0.7-1.1,0.9-1.7
						c0.2-0.6,0.3-1.3,0.3-2c-0.4,0.5-0.9,0.9-1.5,1.2c-0.6,0.3-1.2,0.5-2,0.5c-0.8,0-1.5-0.2-2.1-0.5c-0.6-0.3-1.1-0.7-1.4-1.2
						c-0.4-0.5-0.7-1.1-0.8-1.7c-0.2-0.6-0.3-1.3-0.3-2c0-0.8,0.1-1.5,0.3-2.2c0.2-0.7,0.5-1.3,0.9-1.8c0.4-0.5,0.9-0.9,1.6-1.2
						c0.6-0.3,1.3-0.4,2.2-0.4c0.9,0,1.7,0.2,2.4,0.6c0.7,0.4,1.2,0.9,1.6,1.5c0.4,0.6,0.7,1.3,0.9,2.1c0.2,0.8,0.3,1.6,0.3,2.4v0.7
						c0,0.7,0,1.4-0.1,2.1c-0.1,0.7-0.2,1.4-0.4,2.1c-0.2,0.7-0.5,1.3-0.8,1.9c-0.4,0.6-0.8,1.1-1.4,1.5c-0.6,0.4-1.3,0.8-2.1,1
						c-0.8,0.3-1.8,0.4-2.9,0.4h-0.2v-1.7H39.8z M42.2,446.2c0.3,0,0.7-0.1,1-0.2s0.6-0.3,0.9-0.5c0.3-0.2,0.5-0.4,0.7-0.7
						c0.2-0.3,0.4-0.6,0.5-0.9v-0.8c0-0.7-0.1-1.4-0.3-1.9c-0.2-0.6-0.4-1-0.7-1.4c-0.3-0.4-0.6-0.7-1-0.9s-0.8-0.3-1.2-0.3
						c-0.5,0-0.9,0.1-1.3,0.3s-0.7,0.5-0.9,0.8c-0.3,0.3-0.4,0.7-0.6,1.2c-0.1,0.5-0.2,1-0.2,1.5c0,0.5,0.1,0.9,0.2,1.4
						c0.1,0.5,0.3,0.9,0.5,1.2c0.2,0.4,0.5,0.6,0.9,0.9C41.3,446.1,41.7,446.2,42.2,446.2z"/>
				</g>
				<g>
					<path fill="#414042" d="M50.8,423.4h-2.1v-13.7l-4.1,1.5v-1.9l5.9-2.2h0.3V423.4z"/>
					<path fill="#414042" d="M66.5,416.5c0,1.3-0.1,2.4-0.4,3.3s-0.6,1.6-1,2.2c-0.4,0.6-1,1-1.6,1.2c-0.6,0.2-1.3,0.4-2.1,0.4
						c-0.8,0-1.5-0.1-2.1-0.4c-0.6-0.2-1.2-0.6-1.6-1.2c-0.4-0.6-0.8-1.3-1-2.2s-0.4-2-0.4-3.3v-2.5c0-1.3,0.1-2.4,0.4-3.3
						c0.2-0.9,0.6-1.6,1-2.2c0.4-0.5,1-0.9,1.6-1.2c0.6-0.2,1.3-0.4,2.1-0.4c0.8,0,1.5,0.1,2.1,0.4c0.6,0.2,1.2,0.6,1.6,1.2
						c0.4,0.5,0.8,1.3,1,2.2c0.2,0.9,0.4,2,0.4,3.3V416.5z M64.5,413.7c0-0.9-0.1-1.7-0.2-2.3c-0.1-0.6-0.3-1.2-0.6-1.5
						c-0.3-0.4-0.6-0.7-1-0.9c-0.4-0.2-0.8-0.3-1.3-0.3c-0.5,0-0.9,0.1-1.3,0.3s-0.7,0.5-1,0.9c-0.3,0.4-0.4,0.9-0.6,1.5
						c-0.1,0.6-0.2,1.4-0.2,2.3v3.1c0,0.9,0.1,1.7,0.2,2.3s0.3,1.2,0.6,1.6c0.3,0.4,0.6,0.7,1,0.9c0.4,0.2,0.8,0.3,1.3,0.3
						c0.5,0,0.9-0.1,1.3-0.3c0.4-0.2,0.7-0.5,0.9-0.9c0.3-0.4,0.4-0.9,0.6-1.6s0.2-1.4,0.2-2.3V413.7z"/>
				</g>
				<g>
					<path fill="#414042" d="M72.1,398.2h-2.1v-13.7l-4.1,1.5v-1.9l5.9-2.2h0.3V398.2z"/>
					<path fill="#414042" d="M84.4,398.2h-2.1v-13.7l-4.1,1.5v-1.9l5.9-2.2h0.3V398.2z"/>
				</g>
			</g>
			<path d="M144.5,443.2h-26.5c-0.8-1.7-2.2-3.1-3.9-3.9v-35.7h-6.1v35.7c-2.7,1.2-4.5,3.8-4.5,6.9c0,4.2,3.4,7.6,7.6,7.6
				c3.1,0,5.8-1.9,6.9-4.5h26.5V443.2z"/>
			<path fill="#D71920" d="M111.1,442.6c-2,0-3.7,1.6-3.7,3.7c0,0.6,0.2,1.1,0.4,1.6l-24.2,24.2l1.6,1.6l24.2-24.2
				c0.5,0.2,1,0.4,1.6,0.4c2,0,3.7-1.6,3.7-3.7C114.8,444.3,113.2,442.6,111.1,442.6z"/>
		</g>
	</g>
	<linearGradient id="SVGID_9_" gradientUnits="userSpaceOnUse" x1="111.1292" y1="568.5352" x2="111.1292" y2="679.6641">
		<stop  offset="0" style="stop-color:#000000"/>
		<stop  offset="1" style="stop-color:#000000;stop-opacity:0"/>
	</linearGradient>
	<path opacity="0.1" fill="url(#SVGID_9_)" d="M222.3,679.7V613c0-24.4-20-44.5-44.5-44.5H44.5C20,568.5,0,588.5,0,613v66.7H222.3z"
		/>
</g>
<g>
	<g>
		<linearGradient id="SVGID_10_" gradientUnits="userSpaceOnUse" x1="328.5098" y1="446.2834" x2="550.7676" y2="446.2834">
			<stop  offset="0" style="stop-color:#00B9F2"/>
			<stop  offset="1" style="stop-color:#6DCFF6"/>
		</linearGradient>
		<path fill="url(#SVGID_10_)" d="M506.3,335.2H373c-24.4,0-44.5,20-44.5,44.5V513c0,24.4,20,44.5,44.5,44.5h133.4
			c24.4,0,44.5-20,44.5-44.5V379.6C550.8,355.2,530.8,335.2,506.3,335.2z"/>
		<path fill="#FFFFFF" d="M365.5,401.2v90.1c9.7-9.9,34.9-35.4,44.4-45.1C400.4,436.6,375.2,411.1,365.5,401.2z M415.8,447.2
			c8.1,8.5,16.5,17.2,23.9,17.2s15.8-8.8,23.9-17.2l1-1c6.6-6.9,36.1-36.8,46.8-47.6H368c10.7,10.8,40.2,40.7,46.8,47.6L415.8,447.2
			z M466.2,449.7c-8.6,9-17.6,18.4-26.5,18.4s-17.9-9.3-26.5-18.4l-0.8-0.8c-9.5,9.8-34.6,35.2-44.3,45h143.2
			c-9.7-9.8-34.8-35.2-44.3-45L466.2,449.7z M469.5,446.3c9.4,9.7,34.6,35.2,44.4,45.1v-90.1C504.1,411.1,478.9,436.6,469.5,446.3z"
			/>
	</g>
	<linearGradient id="SVGID_11_" gradientUnits="userSpaceOnUse" x1="439.6387" y1="568.5352" x2="439.6387" y2="679.6641">
		<stop  offset="0" style="stop-color:#000000"/>
		<stop  offset="1" style="stop-color:#000000;stop-opacity:0"/>
	</linearGradient>
	<path opacity="0.1" fill="url(#SVGID_11_)" d="M550.8,679.7V613c0-24.4-20-44.5-44.5-44.5H373c-24.4,0-44.5,20-44.5,44.5v66.7
		H550.8z"/>
</g>
<g>
	<g>
		<path fill="#FFFFFF" d="M770.4,557.4h64.5c24.4,0,44.5-20,44.5-44.5v-64.5H770.4V557.4z"/>
		<path fill="#FFC54E" d="M765.9,335.2h-64.5c-24.4,0-44.5,20-44.5,44.5v64.5h108.9V335.2z"/>
		<path fill="#FFC54E" d="M657,448.5V513c0,24.4,20,44.5,44.5,44.5h64.5V448.5H657z"/>
		<path fill="#FFC54E" d="M834.8,335.2h-64.5v108.9h108.9v-64.5C879.3,355.2,859.3,335.2,834.8,335.2z"/>
		<polygon fill="#FFC54E" points="770.4,335.2 765.9,335.2 765.9,444.1 657,444.1 657,448.5 765.9,448.5 765.9,557.4 770.4,557.4 
			770.4,448.5 879.3,448.5 879.3,444.1 770.4,444.1 		"/>
		<polygon fill="#F0AF13" points="770.4,335.2 765.9,335.2 765.9,444.1 657,444.1 657,448.5 765.9,448.5 765.9,557.4 770.4,557.4 
			770.4,448.5 879.3,448.5 879.3,444.1 770.4,444.1 		"/>
		<g>
			<line fill="none" stroke="#FFFFFF" stroke-width="2" stroke-miterlimit="10" x1="711.5" y1="367.4" x2="711.5" y2="411.9"/>
			<line fill="none" stroke="#FFFFFF" stroke-width="2" stroke-miterlimit="10" x1="689.2" y1="389.6" x2="733.7" y2="389.6"/>
		</g>
		<g>
			<line fill="none" stroke="#FFFFFF" stroke-width="2" stroke-miterlimit="10" x1="727.2" y1="487.2" x2="695.7" y2="518.7"/>
			<line fill="none" stroke="#FFFFFF" stroke-width="2" stroke-miterlimit="10" x1="695.7" y1="487.2" x2="727.2" y2="518.7"/>
		</g>
		<g>
			<line fill="none" stroke="#FFFFFF" stroke-width="2" stroke-miterlimit="10" x1="802.6" y1="389.6" x2="847.1" y2="389.6"/>
		</g>
		<g>
			<line fill="none" stroke="#F0AF13" stroke-width="2" stroke-miterlimit="10" x1="802.6" y1="491.8" x2="847.1" y2="491.8"/>
		</g>
		<line fill="none" stroke="#F0AF13" stroke-width="2" stroke-miterlimit="10" x1="802.6" y1="514.1" x2="847.1" y2="514.1"/>
	</g>
	<linearGradient id="SVGID_12_" gradientUnits="userSpaceOnUse" x1="768.1478" y1="568.5352" x2="768.1478" y2="679.6641">
		<stop  offset="0" style="stop-color:#000000"/>
		<stop  offset="1" style="stop-color:#000000;stop-opacity:0"/>
	</linearGradient>
	<path opacity="0.1" fill="url(#SVGID_12_)" d="M879.3,679.7V613c0-24.4-20-44.5-44.5-44.5H701.5c-24.4,0-44.5,20-44.5,44.5v66.7
		H879.3z"/>
</g>
<g>
	<g>
		<g>
			<linearGradient id="SVGID_13_" gradientUnits="userSpaceOnUse" x1="985.5279" y1="446.2832" x2="1207.7861" y2="446.2832">
				<stop  offset="0" style="stop-color:#ECECED"/>
				<stop  offset="1" style="stop-color:#F1F2F2"/>
			</linearGradient>
			<path fill="url(#SVGID_13_)" d="M1163.3,335.2H1030c-24.4,0-44.5,20-44.5,44.5V513c0,24.4,20,44.5,44.5,44.5h133.4
				c24.4,0,44.5-20,44.5-44.5V379.6C1207.8,355.2,1187.8,335.2,1163.3,335.2z"/>
		</g>
		<linearGradient id="SVGID_14_" gradientUnits="userSpaceOnUse" x1="985.5279" y1="366.0664" x2="1207.7861" y2="366.0664">
			<stop  offset="0" style="stop-color:#FFC20E"/>
			<stop  offset="1" style="stop-color:#FFDD00"/>
		</linearGradient>
		<path fill="url(#SVGID_14_)" d="M1163.3,335.2H1030c-24.4,0-44.5,20-44.5,44.5V397h222.3v-17.4
			C1207.8,355.2,1187.8,335.2,1163.3,335.2z"/>
		<path fill="#DCDDDE" d="M1121.1,409h-4.4v4.4h4.4V409z M1085.5,409h-4.4v4.4h4.4V409z M1112.2,409h-4.4v4.4h4.4V409z M1130,409
			h-4.4v4.4h4.4V409z M1094.4,409h-4.4v4.4h4.4V409z M1138.9,409h-4.4v4.4h4.4V409z M1103.3,409h-4.4v4.4h4.4V409z M1183.3,409h-4.4
			v4.4h4.4V409z M1192.2,409h-4.4v4.4h4.4V409z M1174.4,409h-4.4v4.4h4.4V409z M1147.8,409h-4.4v4.4h4.4V409z M1201.1,409h-4.4v4.4
			h4.4V409z M1156.7,409h-4.4v4.4h4.4V409z M1165.6,409h-4.4v4.4h4.4V409z M1076.7,409h-4.4v4.4h4.4V409z M992.1,536.1h209.1
			c0.9-1.4,1.7-2.9,2.4-4.4H989.7C990.4,533.2,991.2,534.6,992.1,536.1z M987.8,409h-2.2v4.4h2.2V409z M996.6,409h-4.4v4.4h4.4V409z
			 M985.5,442.9h222.3v-4.4H985.5V442.9z M985.5,489.5h222.3V485H985.5V489.5z M1205.6,409v4.4h2.2V409H1205.6z M1005.5,409h-4.4
			v4.4h4.4V409z M1058.9,409h-4.4v4.4h4.4V409z M1014.4,409h-4.4v4.4h4.4V409z M1067.8,409h-4.4v4.4h4.4V409z M1041.1,409h-4.4v4.4
			h4.4V409z M1050,409h-4.4v4.4h4.4V409z M1023.3,409h-4.4v4.4h4.4V409z M1032.2,409h-4.4v4.4h4.4V409z"/>
	</g>
	<linearGradient id="SVGID_15_" gradientUnits="userSpaceOnUse" x1="1096.657" y1="568.5352" x2="1096.657" y2="679.6641">
		<stop  offset="0" style="stop-color:#000000"/>
		<stop  offset="1" style="stop-color:#000000;stop-opacity:0"/>
	</linearGradient>
	<path opacity="0.1" fill="url(#SVGID_15_)" d="M1207.8,679.7V613c0-24.4-20-44.5-44.5-44.5H1030c-24.4,0-44.5,20-44.5,44.5v66.7
		H1207.8z"/>
</g>
<g>
	<g>
		<linearGradient id="SVGID_16_" gradientUnits="userSpaceOnUse" x1="0.4102" y1="112.3157" x2="222.668" y2="112.3157">
			<stop  offset="0" style="stop-color:#ECECED"/>
			<stop  offset="1" style="stop-color:#F1F2F2"/>
		</linearGradient>
		<path fill="url(#SVGID_16_)" d="M178.2,1.2H44.9c-24.4,0-44.5,20-44.5,44.5V179c0,24.4,20,44.5,44.5,44.5h133.4
			c24.4,0,44.5-20,44.5-44.5V45.6C222.7,21.2,202.7,1.2,178.2,1.2z"/>
		<g>
			<path fill="#D71920" d="M42.1,26.5l9.3,23.2l9.3-23.2h4.9V55h-3.8V43.9l0.4-12L52.9,55H50l-9.3-23L41,43.9V55h-3.8V26.5H42.1z"/>
			<path fill="#D71920" d="M73.1,44.2c0-1.5,0.2-3,0.7-4.3s1.1-2.4,1.9-3.4c0.8-1,1.8-1.7,3-2.3c1.2-0.5,2.5-0.8,4-0.8
				c1.5,0,2.8,0.3,4,0.8c1.2,0.5,2.2,1.3,3,2.3c0.8,1,1.5,2.1,1.9,3.4c0.4,1.3,0.7,2.7,0.7,4.3v0.4c0,1.5-0.2,3-0.7,4.3
				c-0.4,1.3-1.1,2.4-1.9,3.4s-1.8,1.7-3,2.2c-1.2,0.5-2.5,0.8-4,0.8s-2.8-0.3-4-0.8c-1.2-0.5-2.2-1.3-3-2.2s-1.5-2.1-1.9-3.4
				s-0.7-2.7-0.7-4.3V44.2z M76.8,44.6c0,1.1,0.1,2.1,0.4,3s0.6,1.8,1.1,2.5c0.5,0.7,1.1,1.3,1.9,1.7c0.7,0.4,1.6,0.6,2.6,0.6
				c1,0,1.9-0.2,2.6-0.6c0.8-0.4,1.4-1,1.9-1.7c0.5-0.7,0.9-1.5,1.1-2.5c0.3-0.9,0.4-1.9,0.4-3v-0.4c0-1-0.1-2-0.4-3
				c-0.3-0.9-0.6-1.8-1.1-2.5c-0.5-0.7-1.1-1.3-1.9-1.7c-0.8-0.4-1.6-0.6-2.6-0.6c-1,0-1.9,0.2-2.6,0.6c-0.7,0.4-1.4,1-1.9,1.7
				c-0.5,0.7-0.9,1.5-1.1,2.5s-0.4,1.9-0.4,3V44.6z"/>
			<path fill="#D71920" d="M102.7,33.8l0.1,2.7c0.8-1,1.7-1.7,2.7-2.2s2.3-0.8,3.6-0.8c1,0,2,0.1,2.8,0.4c0.8,0.3,1.5,0.7,2.1,1.3
				c0.6,0.6,1,1.4,1.4,2.4c0.3,1,0.5,2.1,0.5,3.5V55h-3.6V41.1c0-0.8-0.1-1.5-0.3-2.1c-0.2-0.6-0.5-1.1-0.8-1.4
				c-0.4-0.4-0.8-0.6-1.3-0.8c-0.5-0.2-1.1-0.3-1.8-0.3c-1.2,0-2.2,0.3-3.1,0.9c-0.9,0.6-1.6,1.4-2.1,2.5V55h-3.6V33.8H102.7z"/>
			<path fill="#D71920" d="M122.9,44.2c0-1.6,0.2-3.1,0.6-4.4s1-2.5,1.7-3.4c0.7-0.9,1.6-1.7,2.6-2.2s2.2-0.8,3.4-0.8
				c1.3,0,2.4,0.2,3.4,0.7c1,0.4,1.8,1.1,2.5,1.9V25h3.6v30h-3.3l-0.2-2.3c-0.7,0.9-1.6,1.5-2.5,2c-1,0.5-2.2,0.7-3.5,0.7
				c-1.2,0-2.4-0.3-3.4-0.8s-1.9-1.3-2.6-2.2s-1.3-2.1-1.7-3.4s-0.6-2.7-0.6-4.3V44.2z M126.5,44.6c0,1.1,0.1,2,0.3,3
				c0.2,0.9,0.6,1.7,1,2.4c0.5,0.7,1,1.2,1.7,1.6c0.7,0.4,1.5,0.6,2.5,0.6c0.6,0,1.2-0.1,1.7-0.2s1-0.4,1.4-0.6
				c0.4-0.3,0.8-0.6,1.1-1c0.3-0.4,0.6-0.8,0.8-1.3v-9.7c-0.2-0.4-0.5-0.8-0.8-1.2c-0.3-0.4-0.7-0.7-1.1-0.9
				c-0.4-0.3-0.9-0.5-1.4-0.6c-0.5-0.1-1.1-0.2-1.7-0.2c-1,0-1.8,0.2-2.6,0.6s-1.3,1-1.8,1.7c-0.5,0.7-0.8,1.5-1,2.5
				c-0.2,0.9-0.3,1.9-0.3,3V44.6z"/>
			<path fill="#D71920" d="M161.9,55c-0.1-0.3-0.2-0.6-0.3-1s-0.1-0.8-0.2-1.2c-0.3,0.4-0.7,0.7-1.1,1c-0.4,0.3-0.9,0.6-1.4,0.8
				c-0.5,0.2-1,0.4-1.6,0.6c-0.6,0.1-1.2,0.2-1.9,0.2c-1.1,0-2.1-0.2-2.9-0.5c-0.9-0.3-1.6-0.8-2.2-1.3c-0.6-0.6-1.1-1.2-1.4-2
				c-0.3-0.8-0.5-1.6-0.5-2.5c0-1.1,0.2-2.1,0.7-3c0.4-0.9,1.1-1.6,1.9-2.2c0.8-0.6,1.8-1,3-1.3c1.2-0.3,2.5-0.4,3.9-0.4h3.6v-1.7
				c0-1.3-0.4-2.3-1.1-3s-1.9-1.1-3.3-1.1c-0.7,0-1.3,0.1-1.9,0.3c-0.6,0.2-1,0.4-1.4,0.7c-0.4,0.3-0.7,0.7-0.9,1.1
				s-0.3,0.8-0.3,1.3h-3.6c0-0.8,0.2-1.5,0.6-2.2c0.4-0.7,1-1.4,1.7-2c0.7-0.6,1.6-1.1,2.6-1.4c1-0.4,2.2-0.6,3.5-0.6
				c1.1,0,2.2,0.1,3.2,0.4c1,0.3,1.8,0.7,2.5,1.3c0.7,0.6,1.2,1.3,1.6,2.2s0.6,1.9,0.6,3.1v9.8c0,0.7,0.1,1.5,0.2,2.3
				c0.1,0.8,0.3,1.5,0.6,2V55H161.9z M155.9,52.2c0.7,0,1.3-0.1,1.8-0.3c0.6-0.2,1.1-0.4,1.6-0.7s0.9-0.6,1.2-1
				c0.3-0.4,0.6-0.8,0.8-1.2v-4.3h-3c-2.1,0-3.7,0.3-4.8,1c-1.1,0.6-1.7,1.6-1.7,2.9c0,0.5,0.1,1,0.3,1.4c0.2,0.4,0.4,0.8,0.8,1.1
				s0.8,0.6,1.3,0.8C154.6,52.1,155.2,52.2,155.9,52.2z"/>
			<path fill="#D71920" d="M179.6,49.7l4.9-15.9h3.9l-8.5,24.4c-0.2,0.5-0.4,1.1-0.8,1.7c-0.3,0.6-0.7,1.2-1.2,1.7
				c-0.5,0.5-1.1,1-1.8,1.3c-0.7,0.4-1.5,0.5-2.5,0.5c-0.1,0-0.3,0-0.5,0c-0.2,0-0.4-0.1-0.6-0.1c-0.2,0-0.4-0.1-0.5-0.1
				c-0.2,0-0.3-0.1-0.4-0.1v-2.9c0.1,0,0.1,0,0.2,0c0.1,0,0.2,0,0.3,0c0.1,0,0.2,0,0.3,0c0.1,0,0.2,0,0.2,0c0.6,0,1.2-0.1,1.6-0.2
				s0.9-0.3,1.3-0.6c0.4-0.3,0.7-0.6,0.9-1.1c0.3-0.4,0.5-1,0.7-1.6l0.8-2.2l-7.5-20.9h3.9L179.6,49.7z"/>
		</g>
		<g>
			<path d="M87,188.9H73.3V97.8L45.7,108V95.5l39.1-14.7H87V188.9z"/>
			<path d="M180,143c0,8.8-0.8,16.2-2.4,22.3c-1.6,6-3.8,10.9-6.8,14.6c-2.9,3.7-6.5,6.4-10.6,8c-4.2,1.6-8.9,2.4-14.1,2.4
				c-5.2,0-9.8-0.8-14-2.4c-4.2-1.6-7.8-4.3-10.7-8c-3-3.7-5.2-8.6-6.9-14.6c-1.6-6-2.4-13.5-2.4-22.3v-16.4
				c0-8.8,0.8-16.2,2.4-22.2c1.6-6,3.9-10.8,6.8-14.4c3-3.6,6.5-6.3,10.7-7.8c4.2-1.6,8.8-2.4,14-2.4c5.2,0,9.9,0.8,14.1,2.4
				c4.2,1.6,7.8,4.2,10.7,7.8c3,3.6,5.2,8.4,6.8,14.4c1.6,6,2.4,13.3,2.4,22.2V143z M166.3,124.4c0-6.1-0.4-11.2-1.3-15.4
				c-0.9-4.2-2.2-7.7-3.9-10.3c-1.7-2.6-3.9-4.5-6.4-5.7c-2.5-1.2-5.5-1.8-8.8-1.8c-3.3,0-6.1,0.6-8.7,1.8c-2.5,1.2-4.7,3.1-6.4,5.7
				c-1.7,2.6-3,6.1-3.9,10.3c-0.9,4.2-1.3,9.4-1.3,15.4v20.8c0,6,0.4,11.2,1.3,15.5c0.9,4.3,2.2,7.8,4,10.6c1.7,2.8,3.9,4.8,6.4,6.1
				c2.5,1.3,5.4,1.9,8.7,1.9c3.3,0,6.3-0.6,8.8-1.9c2.5-1.3,4.6-3.3,6.3-6.1c1.7-2.8,3-6.3,3.8-10.6c0.8-4.3,1.3-9.5,1.3-15.5V124.4
				z"/>
		</g>
	</g>
	<linearGradient id="SVGID_17_" gradientUnits="userSpaceOnUse" x1="111.5391" y1="234.5672" x2="111.5391" y2="345.696">
		<stop  offset="0" style="stop-color:#000000"/>
		<stop  offset="1" style="stop-color:#000000;stop-opacity:0"/>
	</linearGradient>
	<path opacity="0.1" fill="url(#SVGID_17_)" d="M222.7,345.7V279c0-24.4-20-44.5-44.5-44.5H44.9c-24.4,0-44.5,20-44.5,44.5v66.7
		H222.7z"/>
</g>
</svg>