<!-- Generator: Adobe Illustrator 18.1.1, SVG Export Plug-In  -->
<svg version="1.1"
	 xmlns="http://www.w3.org/2000/svg" xmlns:xlink="http://www.w3.org/1999/xlink" xmlns:a="http://ns.adobe.com/AdobeSVGViewerExtensions/3.0/"
	 x="0px" y="0px" width="122.2px" height="90.6px" viewBox="0 0 122.2 90.6" enable-background="new 0 0 122.2 90.6"
	 xml:space="preserve">
<defs>
</defs>
<g>
	<path fill="#FFFFFF" d="M119.5,14.7H90.4L80.9,1.1C80.4,0.4,79.6,0,78.7,0H39.9c-0.9,0-1.7,0.4-2.2,1.1l-9.5,13.6h-2.8v-4.6
		c0-1.5-1.2-2.6-2.6-2.6h-13c-1.5,0-2.6,1.2-2.6,2.6v4.6H2.6c-1.5,0-2.6,1.2-2.6,2.6V88c0,1.5,1.2,2.6,2.6,2.6h117
		c1.5,0,2.6-1.2,2.6-2.6V17.3C122.2,15.9,121,14.7,119.5,14.7z M12.4,12.7h7.7v2h-7.7V12.7z M116.9,85.4H5.2V19.9h4.6h13h7
		c0.9,0,1.7-0.4,2.2-1.1l9.5-13.6h36L87,18.8c0.5,0.7,1.3,1.1,2.2,1.1h27.9v65.5H116.9z"/>
	<path fill="#FFFFFF" d="M61,26.9c-14.2,0-25.8,11.6-25.8,25.8S46.8,78.5,61,78.5s25.8-11.6,25.8-25.8S75.2,26.9,61,26.9z M61,73.2
		c-11.3,0-20.5-9.2-20.5-20.5S49.7,32.2,61,32.2s20.5,9.2,20.5,20.5S72.3,73.2,61,73.2z"/>
	<circle fill="#FFFFFF" cx="105.3" cy="29.6" r="3.8"/>
</g>
</svg>