<!-- Generator: Adobe Illustrator 18.1.1, SVG Export Plug-In  -->
<svg version="1.1"
	 xmlns="http://www.w3.org/2000/svg" xmlns:xlink="http://www.w3.org/1999/xlink" xmlns:a="http://ns.adobe.com/AdobeSVGViewerExtensions/3.0/"
	 x="0px" y="0px" width="296.6px" height="596.5px" viewBox="0 0 296.6 596.5" enable-background="new 0 0 296.6 596.5"
	 xml:space="preserve">
<defs>
</defs>
<g id="iphone6_x2B__flat-spacegray_1_">
	<g>
		<path fill="#555253" d="M260.5,596.1c20.6-2.4,34.7-17.1,34.7-40.5l0.1-286.8c-0.3-1.3-0.5-2.6-0.5-4l-0.1-49.2
			c0-1.5,0.3-2.9,0.6-4.3l0-57.4c-0.5-1.6-0.9-3.3-0.9-5.2l-0.1-30.2c0-1.9,0.4-3.7,1-5.4l0-72.4c0-25.6-16.9-40.9-40.9-40.9H42.6
			C18.7,0,1.8,15.2,1.8,40.9c0,0.2,0,13.6,0,28.8C2.1,71,2.4,72.5,2.4,74L2.3,88.2c0,1.4-0.2,2.8-0.6,4.1c0,6.8,0,12.9,0,20.8
			c0.7,1.9,1.2,3.9,1.2,6l0,76.7c0,2.1-0.4,4.1-1.2,6c0,126.1,0,353.7,0,353.7c0,25.6,16.9,40.9,40.9,40.9v0.1h1
			c2.3-1.1,4.8-1.9,7.5-1.9c2.7,0,5.2,0.7,7.4,1.9h7c0.9-0.1,1.7-0.4,2.6-0.4c1.2,0,2.3,0.1,3.4,0.4h48.5c1-0.2,2.1-0.3,3.2-0.3
			c1.1,0,2.1,0.1,3.2,0.3h5.3c1.6-0.6,3.3-1,5.1-1l24.1,0c1.8,0,3.5,0.4,5.1,0.9h6.2c0.8-0.1,1.6-0.2,2.5-0.2c0.9,0,1.8,0.1,2.6,0.2
			h17.7c1-0.2,2-0.3,3.1-0.3c0.9,0,1.8,0.1,2.7,0.3h3.1c0.9-0.2,1.8-0.3,2.7-0.3c0.9,0,1.8,0.1,2.7,0.3h2.3c1-0.2,2-0.3,3.1-0.3
			c0.9,0,1.8,0.1,2.7,0.3h3.1c0.9-0.2,1.8-0.3,2.7-0.3c0.9,0,1.8,0.1,2.7,0.3h3.1c0.9-0.2,1.8-0.3,2.7-0.3c0.9,0,1.8,0.1,2.7,0.3
			h3.1c0.9-0.2,1.8-0.3,2.7-0.3c0.9,0,1.8,0.1,2.7,0.3h3.1c0.9-0.2,1.8-0.3,2.7-0.3c0.8,0,2.3,0.2,3.1,0.3h2.3
			c1.3-0.3,2-0.4,3.4-0.4C258.9,595.9,260.5,596.1,260.5,596.1z"/>
		<path fill="#38363A" d="M252.6,590.2c21.3,0,36.4-11,36.4-34.6V42.2c0-25.2-15.7-36-34.8-36H42.8C23.7,6.2,8,16.9,8,42.2v513.3
			c-0.1,25.1,15.1,34.6,36.4,34.6H252.6z"/>
		<path fill="#231F20" d="M291,555.1c0,24-15.4,37-37,37L43,592c-21.7,0-37-11.2-37-35.2V41.1c0-24,15.4-37,37-37L253.9,4
			c21.7,0,37,13,37,37V555.1z M252.6,590.2c21.3,0,36.4-11,36.4-34.6V42.2c0-25.2-15.7-36-34.8-36H42.8C23.7,6.2,8,16.9,8,42.2
			v513.3c-0.1,25.1,15.1,34.6,36.4,34.6H252.6z"/>
		<rect x="19.4" y="68.9" fill="#555253" width="258" height="458.6"/>
	</g>
	<g>
		<path fill="#231F20" d="M103,34.4c0,3.1,2.5,5.7,5.7,5.7s5.7-2.5,5.7-5.7c0-3.1-2.5-5.7-5.7-5.7S103,31.2,103,34.4"/>
		<path fill="#231F20" d="M142.7,17.4c0,3.1,2.5,5.7,5.7,5.7c3.1,0,5.7-2.5,5.7-5.7c0-3.1-2.5-5.7-5.7-5.7
			C145.2,11.7,142.7,14.3,142.7,17.4"/>
		<path opacity="0.5" fill="#555253" d="M127.8,17.4c0,2.4,1.9,4.3,4.3,4.3c2.4,0,4.3-1.9,4.3-4.3c0-2.4-1.9-4.3-4.3-4.3
			C129.7,13.1,127.8,15,127.8,17.4"/>
		<polygon fill="#231F20" points="166.2,36.3 131.4,36.3 130.5,36.2 129.7,35.9 129.2,35.2 129,34.4 129.2,33.5 129.7,32.9 
			130.5,32.5 131.4,32.5 166.2,32.5 167.1,32.5 167.9,32.9 168.4,33.5 168.6,34.4 168.4,35.2 167.9,35.9 167.1,36.2 		"/>
	</g>
	<g>
		<path fill="#555253" d="M131.6,559.8c0-9.3,7.5-16.8,16.8-16.8c9.3,0,16.8,7.5,16.8,16.8c0,9.3-7.5,16.8-16.8,16.8
			C139.1,576.6,131.6,569.1,131.6,559.8z M148.4,579.7c11,0,19.9-8.9,19.9-19.9s-8.9-19.9-19.9-19.9s-19.9,8.9-19.9,19.9
			S137.4,579.7,148.4,579.7z"/>
		<path fill="#7B7E75" d="M3,91.7H0.6c-0.3,0-0.6-0.3-0.6-0.6V71.5c0-0.3,0.3-0.6,0.6-0.6H3"/>
		<path fill="#7B7E75" d="M3,153.3H1.2c-0.3,0-0.6-0.3-0.6-0.6v-37.4c0-0.3,0.3-0.6,0.6-0.6H3"/>
		<path fill="#7B7E75" d="M3,200.9H1.2c-0.3,0-0.6-0.3-0.6-0.6v-37.4c0-0.3,0.3-0.6,0.6-0.6H3"/>
		<path fill="#7B7E75" d="M294,152.7h2c0.3,0,0.6-0.3,0.6-0.6v-37.4c0-0.3-0.3-0.6-0.6-0.6h-2.1"/>
	</g>
	<g opacity="0.96">
		<rect x="291" y="43" fill="#7B7E75" width="4.4" height="7.6"/>
		<rect x="291" y="546.3" fill="#7B7E75" width="4.3" height="7.6"/>
		<rect x="1.7" y="546.3" fill="#7B7E75" width="4.3" height="7.6"/>
		<rect x="1.7" y="43" fill="#7B7E75" width="4.3" height="7.6"/>
	</g>
	<path opacity="8.000000e-002" fill="#E4E2D8" d="M289,122.9V42.2c0-25.2-15.7-36-34.8-36H42.8C23.7,6.2,8,16.9,8,42.2v361.7
		L289,122.9z"/>
	<g opacity="0.3">
		<path fill="#FFFFFF" d="M249.4,9.1c0,0-38,0.2-94.9,0.6C126,9.8,92.8,9.9,57.2,10c-2.2,0-4.5,0-6.7,0c-1.1,0-2.2,0-3.4,0l-1.7,0
			l-1.7,0.1c-0.6,0-1.1,0-1.7,0.1l-1.6,0.2c-0.5,0.1-1.1,0.1-1.6,0.2l-1.6,0.3c-0.5,0.1-1.1,0.2-1.6,0.3l-1.6,0.5
			c-1.1,0.3-2.1,0.7-3.1,1.1c-4.1,1.7-7.9,4.3-10.7,7.8c-2.8,3.5-4.8,7.7-5.9,12.1c-0.2,1.1-0.5,2.2-0.7,3.4l-0.4,3.4
			c-0.1,2.3-0.2,4.6-0.2,7c0,4.7,0,9.4,0,14.1c0,9.5,0,18.9,0,28.4c0,38-0.1,75.9-0.1,111.5c-0.1,35.6-0.2,68.8-0.3,97.3
			c-0.3,56.9-0.6,94.9-0.6,94.9s-0.2-38-0.6-94.9c-0.1-28.5-0.2-61.7-0.3-97.3c0-35.6-0.1-73.6-0.1-111.5c0-9.5,0-19,0-28.4
			c0-4.7,0-9.4,0-14.1c0-2.3,0.1-4.7,0.2-7.1l0.5-3.6c0.2-1.2,0.5-2.3,0.7-3.5c1.2-4.6,3.2-9.1,6.3-12.8c3-3.7,7.1-6.5,11.4-8.3
			c4.3-1.8,9-2.6,13.6-2.8l1.7-0.1l1.7,0c1.1,0,2.2,0,3.4,0c2.2,0,4.5,0,6.7,0c35.6,0.1,68.8,0.2,97.3,0.3
			C211.4,8.9,249.4,9.1,249.4,9.1z"/>
	</g>
</g>
</svg>