<!-- Generator: Adobe Illustrator 18.1.1, SVG Export Plug-In  -->
<svg version="1.1"
	 xmlns="http://www.w3.org/2000/svg" xmlns:xlink="http://www.w3.org/1999/xlink" xmlns:a="http://ns.adobe.com/AdobeSVGViewerExtensions/3.0/"
	 x="0px" y="0px" width="35.7px" height="34.9px" viewBox="0 0 35.7 34.9" enable-background="new 0 0 35.7 34.9"
	 xml:space="preserve">
<defs>
</defs>
<path id="Home-Icon_1_" d="M28.2,8.1l-8.9-7.7c-0.6-0.5-1.7-0.5-2.3,0L0.7,14.9c-1.2,1.1-0.9,2,0.7,2h2.8v16.2
	c0,0.8,0.5,1.8,1.3,1.8h24.8c0.8,0,0.9-1,0.9-1.8V16.9h3.2c1.6,0,1.7-0.9,0.5-2l-3.6-3.1V7.8c0-1.2-0.4-2.1-1.5-2.1
	c-1.2,0-1.5,0.9-1.5,2.1V8.1z M22.2,20.9h6v10h-6V20.9z"/>
</svg>