<!-- Generator: Adobe Illustrator 18.1.1, SVG Export Plug-In  -->
<svg version="1.1"
	 xmlns="http://www.w3.org/2000/svg" xmlns:xlink="http://www.w3.org/1999/xlink" xmlns:a="http://ns.adobe.com/AdobeSVGViewerExtensions/3.0/"
	 x="0px" y="0px" width="99px" height="99px" viewBox="0 0 99 99" enable-background="new 0 0 99 99" xml:space="preserve">
<defs>
</defs>
<path id="XMLID_1_" fill="#FFFFFF" d="M65.4,11.2c-14.9-14.9-39.3-14.9-54.2,0s-14.9,39.3,0,54.2c7.5,7.5,17.3,11.2,27.1,11.2
	c8.6,0,17.2-2.9,24.2-8.6l29.8,29.8c0.8,0.8,1.8,1.2,2.8,1.2s2-0.4,2.8-1.2c1.5-1.5,1.5-4,0-5.6L68.1,62.4
	C80.3,47.5,79.4,25.2,65.4,11.2z M59.9,59.9c-11.9,11.9-31.2,11.9-43.1,0s-11.9-31.2,0-43.1c5.9-5.9,13.7-8.9,21.5-8.9
	s15.6,3,21.5,8.9C71.7,28.7,71.7,48,59.9,59.9z"/>
</svg>